<svg width="60" height="17" viewBox="0 0 60 17" fill="none" xmlns="http://www.w3.org/2000/svg">
<path d="M6.94077 7.53348V12.6302C6.94077 13.0634 6.85231 13.4763 6.67538 13.8689C6.51207 14.2479 6.28752 14.5796 6.00172 14.8639C5.71593 15.1482 5.37569 15.3715 4.98102 15.534C4.59996 15.71 4.19168 15.798 3.75618 15.798C3.32068 15.798 2.9124 15.7167 2.53134 15.5543C2.15028 15.3918 1.81685 15.1753 1.53105 14.9045C1.24526 14.6202 1.0139 14.2953 0.836975 13.9298C0.673663 13.5508 0.585202 13.1447 0.571593 12.7115V8.95489C0.530765 8.53523 0.340234 8.23064 0 8.04112C0.190531 7.94636 0.381062 7.89898 0.571593 7.89898V3.1068C0.585202 2.67361 0.673663 2.26749 0.836975 1.88845C1.0139 1.5094 1.24526 1.18451 1.53105 0.913764C1.81685 0.629483 2.15028 0.406118 2.53134 0.243671C2.9124 0.0812236 3.32068 0 3.75618 0C4.19168 0 4.59996 0.0879921 4.98102 0.263976C5.37569 0.426424 5.71593 0.649788 6.00172 0.93407C6.28752 1.21835 6.51207 1.55678 6.67538 1.94936C6.85231 2.32841 6.94077 2.74129 6.94077 3.18802C6.94077 3.41815 6.96118 3.58737 7.00201 3.69567C7.05645 3.80397 7.11088 3.89196 7.16532 3.95964C7.21976 4.02733 7.26739 4.08825 7.30822 4.1424C7.36266 4.19655 7.38988 4.28454 7.38988 4.40637H6.32835C6.1106 4.3793 6.00172 4.26423 6.00172 4.06117C6.00172 4.26423 5.89285 4.3793 5.6751 4.40637H4.59315C4.59315 4.28454 4.61357 4.19655 4.6544 4.1424C4.70883 4.08825 4.76327 4.02733 4.81771 3.95964C4.87215 3.89196 4.91978 3.80397 4.96061 3.69567C5.01504 3.58737 5.04226 3.41139 5.04226 3.16772V3.14741C5.04226 2.97143 5.03546 2.7616 5.02185 2.51793C5.00824 2.26072 4.96061 2.01705 4.87895 1.78692C4.7973 1.55678 4.66801 1.36049 4.49108 1.19805C4.31416 1.0356 4.0692 0.954377 3.75618 0.954377C3.42956 0.954377 3.17778 1.04237 3.00086 1.21835C2.83755 1.3808 2.71506 1.57709 2.63341 1.80722C2.55175 2.03736 2.50412 2.28103 2.49051 2.53823C2.4769 2.79544 2.4701 3.01204 2.4701 3.18802V7.89898C2.66063 7.89898 2.85116 7.94636 3.04169 8.04112C2.70146 8.23064 2.51092 8.53523 2.4701 8.95489V12.6302C2.4701 12.8062 2.4769 13.0228 2.49051 13.28C2.50412 13.5237 2.55175 13.7674 2.63341 14.011C2.71506 14.2412 2.83755 14.4375 3.00086 14.5999C3.17778 14.7624 3.42956 14.8436 3.75618 14.8436C4.0828 14.8436 4.32777 14.7624 4.49108 14.5999C4.66801 14.4375 4.7973 14.2412 4.87895 14.011C4.96061 13.7674 5.00824 13.5237 5.02185 13.28C5.03546 13.0228 5.04226 12.8062 5.04226 12.6302V8.46755C4.89256 8.48108 4.76327 8.542 4.6544 8.6503C4.55913 8.7586 4.5115 8.8872 4.5115 9.03611V9.05642C4.49789 9.25947 4.44345 9.43546 4.34819 9.58437C4.26653 9.71974 4.14405 9.84158 3.98073 9.94987C3.81742 10.0446 3.57926 10.092 3.26624 10.092V7.53348H6.94077ZM1.67395 6.94461C1.67395 6.86338 1.66715 6.78216 1.65354 6.70094C1.65354 6.61971 1.65354 6.54526 1.65354 6.47757V6.01054C1.63993 5.71272 1.63312 5.42844 1.63312 5.15769C1.63312 4.88695 1.62632 4.62974 1.61271 4.38607C1.5991 4.26423 1.59229 4.15593 1.59229 4.06117C1.59229 3.95288 1.58549 3.84458 1.57188 3.73628C1.57188 3.64152 1.56508 3.55353 1.55147 3.4723C1.55147 3.37754 1.55147 3.29632 1.55147 3.22863C1.55147 3.16095 1.54466 3.10003 1.53105 3.04588C1.53105 2.99173 1.53105 2.94435 1.53105 2.90374V2.80221C1.51744 2.80221 1.51064 2.80898 1.51064 2.82252V2.90374C1.51064 2.94435 1.50383 2.99173 1.49022 3.04588C1.49022 3.10003 1.49022 3.16095 1.49022 3.22863C1.49022 3.29632 1.48342 3.37754 1.46981 3.4723C1.46981 3.55353 1.46981 3.64152 1.46981 3.73628C1.4562 3.84458 1.4494 3.95288 1.4494 4.06117C1.4494 4.15593 1.44259 4.26423 1.42898 4.38607C1.41537 4.62974 1.40857 4.88695 1.40857 5.15769C1.40857 5.42844 1.40176 5.71272 1.38815 6.01054V6.47757C1.38815 6.54526 1.38135 6.61971 1.36774 6.70094C1.36774 6.78216 1.36774 6.86338 1.36774 6.94461V8.83305C1.36774 8.87366 1.36774 8.91428 1.36774 8.95489C1.38135 8.9955 1.38815 9.02934 1.38815 9.05642V9.74682C1.38815 9.89573 1.38815 10.0446 1.38815 10.1935C1.40176 10.3289 1.40857 10.4643 1.40857 10.5997C1.40857 10.7486 1.40857 10.8907 1.40857 11.0261C1.42218 11.1479 1.42898 11.263 1.42898 11.3713C1.44259 11.4931 1.4494 11.6082 1.4494 11.7165C1.4494 11.8248 1.4562 11.9263 1.46981 12.0211C1.46981 12.1294 1.46981 12.2241 1.46981 12.3054C1.48342 12.3866 1.49022 12.461 1.49022 12.5287C1.49022 12.5964 1.49022 12.6573 1.49022 12.7115C1.50383 12.7656 1.51064 12.813 1.51064 12.8536V12.9551C1.51064 12.9687 1.51744 12.9754 1.53105 12.9754V12.8536C1.53105 12.813 1.53105 12.7656 1.53105 12.7115C1.54466 12.6573 1.55147 12.5964 1.55147 12.5287C1.55147 12.461 1.55147 12.3866 1.55147 12.3054C1.56508 12.2241 1.57188 12.1294 1.57188 12.0211C1.58549 11.9263 1.59229 11.8248 1.59229 11.7165C1.59229 11.6082 1.5991 11.4931 1.61271 11.3713C1.61271 11.263 1.61271 11.1479 1.61271 11.0261C1.62632 10.8907 1.63312 10.7486 1.63312 10.5997C1.63312 10.4643 1.63312 10.3289 1.63312 10.1935C1.64673 10.0446 1.65354 9.89573 1.65354 9.74682V9.30009C1.65354 9.19179 1.66034 9.11056 1.67395 9.05642V6.94461ZM6.12421 9.88896C6.1106 9.75358 6.10379 9.63175 6.10379 9.52345C6.10379 9.40162 6.09699 9.28655 6.08338 9.17825C6.06977 8.97519 6.04935 8.80598 6.02214 8.6706C6.02214 8.64353 6.01533 8.61646 6.00172 8.58938C6.00172 8.56231 6.00172 8.542 6.00172 8.52846V8.46755L5.98131 8.48785V8.52846C5.98131 8.542 5.9745 8.56231 5.96089 8.58938C5.96089 8.61646 5.96089 8.64353 5.96089 8.6706C5.93368 8.80598 5.91326 8.97519 5.89965 9.17825C5.88604 9.28655 5.87924 9.40162 5.87924 9.52345C5.87924 9.63175 5.87243 9.75358 5.85882 9.88896V10.092C5.85882 10.1326 5.85202 10.1732 5.83841 10.2139C5.83841 10.2409 5.83841 10.268 5.83841 10.2951V11.1479C5.83841 11.1885 5.84521 11.2224 5.85882 11.2494V11.554C5.85882 11.6217 5.85882 11.6826 5.85882 11.7368C5.87243 11.7909 5.87924 11.8519 5.87924 11.9195C5.87924 11.9872 5.87924 12.0481 5.87924 12.1023C5.89285 12.1564 5.89965 12.2106 5.89965 12.2647C5.91326 12.3189 5.92007 12.373 5.92007 12.4272C5.92007 12.4678 5.92687 12.5084 5.94048 12.549C5.94048 12.5896 5.94048 12.6302 5.94048 12.6709C5.95409 12.7115 5.96089 12.7453 5.96089 12.7724C5.96089 12.7995 5.96089 12.8265 5.96089 12.8536C5.9745 12.8807 5.98131 12.901 5.98131 12.9145V12.9551C5.98131 12.9687 5.98811 12.9754 6.00172 12.9754V12.9145C6.00172 12.901 6.00172 12.8807 6.00172 12.8536C6.01533 12.8265 6.02214 12.7995 6.02214 12.7724C6.02214 12.7453 6.02214 12.7115 6.02214 12.6709C6.03575 12.6302 6.04255 12.5896 6.04255 12.549C6.05616 12.5084 6.06296 12.4678 6.06296 12.4272C6.06296 12.373 6.06977 12.3189 6.08338 12.2647C6.08338 12.2106 6.08338 12.1564 6.08338 12.1023C6.09699 12.0481 6.10379 11.9872 6.10379 11.9195C6.10379 11.8519 6.10379 11.7909 6.10379 11.7368C6.1174 11.6826 6.12421 11.6217 6.12421 11.554V11.351C6.12421 11.2968 6.13101 11.263 6.14462 11.2494V10.2951C6.14462 10.268 6.13782 10.2409 6.12421 10.2139C6.12421 10.1732 6.12421 10.1326 6.12421 10.092V9.88896Z" fill="#FF9000"/>
<path d="M14.3568 7.91929C14.5882 7.91929 14.7787 7.96667 14.9284 8.06143C14.7787 8.15619 14.6494 8.28479 14.5405 8.44724C14.4453 8.60969 14.384 8.78567 14.3568 8.97519V12.0414C14.3432 12.4746 14.2479 12.8807 14.071 13.2597C13.9077 13.6252 13.6831 13.9501 13.3973 14.2344C13.1115 14.5052 12.7781 14.7218 12.3971 14.8842C12.016 15.0466 11.6077 15.1279 11.1722 15.1279C10.7367 15.1279 10.3284 15.0466 9.94737 14.8842C9.56631 14.7218 9.23288 14.5052 8.94708 14.2344C8.66129 13.9501 8.42993 13.6252 8.25301 13.2597C8.08969 12.8807 8.00123 12.4746 7.98762 12.0414V8.97519C7.9468 8.55554 7.75626 8.25095 7.41603 8.06143C7.56573 7.96667 7.75626 7.91929 7.98762 7.91929V4.00026C8.00123 3.5806 8.08969 3.18125 8.25301 2.80221C8.42993 2.42317 8.66129 2.09827 8.94708 1.82753C9.23288 1.54325 9.56631 1.31988 9.94737 1.15744C10.3284 0.994988 10.7367 0.913764 11.1722 0.913764C11.6077 0.913764 12.016 0.994988 12.3971 1.15744C12.7781 1.31988 13.1115 1.54325 13.3973 1.82753C13.6831 2.09827 13.9077 2.42317 14.071 2.80221C14.2479 3.18125 14.3432 3.5806 14.3568 4.00026V7.91929ZM9.08998 7.18828C9.08998 7.12059 9.08318 7.05967 9.06957 7.00552C9.06957 6.93784 9.06957 6.87015 9.06957 6.80247V6.41665C9.05596 6.15945 9.04915 5.91578 9.04915 5.68564C9.04915 5.45551 9.04235 5.23891 9.02874 5.03585C9.01513 4.94109 9.00832 4.84633 9.00832 4.75157C9.00832 4.65681 9.00152 4.56882 8.98791 4.4876C8.98791 4.40637 8.98111 4.33192 8.9675 4.26423C8.9675 4.19655 8.9675 4.13563 8.9675 4.08148C8.9675 4.01379 8.96069 3.95964 8.94708 3.91903C8.94708 3.86488 8.94708 3.82427 8.94708 3.7972V3.69567C8.93347 3.69567 8.92667 3.70244 8.92667 3.71597V3.7972C8.92667 3.82427 8.91986 3.86488 8.90625 3.91903C8.90625 3.95964 8.90625 4.01379 8.90625 4.08148C8.90625 4.13563 8.89945 4.19655 8.88584 4.26423C8.88584 4.33192 8.88584 4.40637 8.88584 4.4876C8.87223 4.56882 8.86543 4.65681 8.86543 4.75157C8.86543 4.84633 8.85862 4.94109 8.84501 5.03585C8.8314 5.23891 8.8246 5.45551 8.8246 5.68564C8.8246 5.91578 8.81779 6.15945 8.80418 6.41665V6.80247C8.80418 6.87015 8.79738 6.93784 8.78377 7.00552C8.78377 7.05967 8.78377 7.12059 8.78377 7.18828V8.79244C8.78377 8.8872 8.79058 8.95489 8.80418 8.9955V9.58437C8.80418 9.7062 8.80418 9.82804 8.80418 9.94987C8.81779 10.0717 8.8246 10.1868 8.8246 10.2951C8.8246 10.4169 8.8246 10.532 8.8246 10.6403C8.83821 10.735 8.84501 10.8366 8.84501 10.9449C8.85862 11.0532 8.86543 11.1547 8.86543 11.2494C8.86543 11.3307 8.87223 11.4119 8.88584 11.4931C8.88584 11.5743 8.88584 11.6488 8.88584 11.7165C8.89945 11.7842 8.90625 11.8519 8.90625 11.9195C8.90625 11.9872 8.90625 12.0481 8.90625 12.1023C8.91986 12.1429 8.92667 12.1768 8.92667 12.2038V12.2647C8.92667 12.2783 8.93347 12.285 8.94708 12.285V12.2038C8.94708 12.1768 8.94708 12.1429 8.94708 12.1023C8.96069 12.0481 8.9675 11.9872 8.9675 11.9195C8.9675 11.8519 8.9675 11.7842 8.9675 11.7165C8.98111 11.6488 8.98791 11.5743 8.98791 11.4931C9.00152 11.4119 9.00832 11.3307 9.00832 11.2494C9.00832 11.1547 9.01513 11.0532 9.02874 10.9449C9.02874 10.8366 9.02874 10.735 9.02874 10.6403C9.04235 10.532 9.04915 10.4169 9.04915 10.2951C9.04915 10.1868 9.04915 10.0717 9.04915 9.94987C9.06276 9.82804 9.06957 9.7062 9.06957 9.58437V8.9955C9.08318 8.95489 9.08998 8.8872 9.08998 8.79244V7.18828ZM12.4583 4.08148C12.4583 3.9055 12.4515 3.6889 12.4379 3.43169C12.4243 3.17448 12.3766 2.93081 12.295 2.70068C12.2133 2.47055 12.084 2.27426 11.9071 2.11181C11.7438 1.93583 11.4988 1.84783 11.1722 1.84783C10.8456 1.84783 10.5938 1.93583 10.4169 2.11181C10.2536 2.27426 10.1311 2.47055 10.0494 2.70068C9.96778 2.93081 9.92015 3.17448 9.90654 3.43169C9.89293 3.6889 9.88613 3.9055 9.88613 4.08148V7.91929C10.1175 7.91929 10.308 7.96667 10.4577 8.06143C10.1175 8.25095 9.92696 8.55554 9.88613 8.97519V11.9602C9.88613 12.1361 9.89293 12.3527 9.90654 12.6099C9.92015 12.8536 9.96778 13.0973 10.0494 13.341C10.1311 13.5711 10.2536 13.7674 10.4169 13.9298C10.5938 14.0923 10.8456 14.1735 11.1722 14.1735C11.4988 14.1735 11.7438 14.0923 11.9071 13.9298C12.084 13.7674 12.2133 13.5711 12.295 13.341C12.3766 13.0973 12.4243 12.8536 12.4379 12.6099C12.4515 12.3527 12.4583 12.1361 12.4583 11.9602V8.97519C12.4311 8.56908 12.2405 8.26449 11.8867 8.06143C12.0364 7.96667 12.2269 7.91929 12.4583 7.91929V4.08148ZM13.5607 7.18828C13.5607 7.12059 13.5607 7.05967 13.5607 7.00552C13.5607 6.93784 13.5538 6.87015 13.5402 6.80247V6.41665C13.5402 6.15945 13.5334 5.91578 13.5198 5.68564C13.5198 5.45551 13.513 5.23891 13.4994 5.03585C13.4858 4.94109 13.479 4.84633 13.479 4.75157C13.479 4.65681 13.4722 4.56882 13.4586 4.4876C13.4586 4.40637 13.4518 4.33192 13.4382 4.26423C13.4382 4.19655 13.4382 4.13563 13.4382 4.08148C13.4382 4.01379 13.4314 3.95964 13.4178 3.91903C13.4178 3.86488 13.4178 3.82427 13.4178 3.7972V3.69567C13.4041 3.69567 13.3973 3.70244 13.3973 3.71597V3.7972C13.3973 3.82427 13.3973 3.86488 13.3973 3.91903C13.3973 3.95964 13.3905 4.01379 13.3769 4.08148C13.3769 4.13563 13.3701 4.19655 13.3565 4.26423C13.3565 4.33192 13.3565 4.40637 13.3565 4.4876C13.3429 4.56882 13.3361 4.65681 13.3361 4.75157C13.3361 4.84633 13.3293 4.94109 13.3157 5.03585C13.3021 5.23891 13.2953 5.45551 13.2953 5.68564C13.2953 5.91578 13.2885 6.15945 13.2749 6.41665V7.18828C13.2612 7.32365 13.2544 7.45902 13.2544 7.59439C13.2544 7.72977 13.2544 7.86514 13.2544 8.00051C13.2544 8.13588 13.2544 8.27126 13.2544 8.40663C13.2544 8.52846 13.2612 8.65707 13.2749 8.79244V9.58437C13.2749 9.7062 13.2749 9.82804 13.2749 9.94987C13.2885 10.0717 13.2953 10.1868 13.2953 10.2951C13.2953 10.4169 13.2953 10.532 13.2953 10.6403C13.3089 10.735 13.3157 10.8366 13.3157 10.9449C13.3293 11.0532 13.3361 11.1547 13.3361 11.2494C13.3361 11.3307 13.3429 11.4119 13.3565 11.4931C13.3565 11.5743 13.3565 11.6488 13.3565 11.7165C13.3701 11.7842 13.3769 11.8519 13.3769 11.9195C13.3905 11.9872 13.3973 12.0481 13.3973 12.1023C13.3973 12.1429 13.3973 12.1768 13.3973 12.2038V12.2647C13.3973 12.2783 13.4041 12.285 13.4178 12.285V12.2038C13.4178 12.1768 13.4178 12.1429 13.4178 12.1023C13.4314 12.0481 13.4382 11.9872 13.4382 11.9195C13.4382 11.8519 13.4382 11.7842 13.4382 11.7165C13.4518 11.6488 13.4586 11.5743 13.4586 11.4931C13.4722 11.4119 13.479 11.3307 13.479 11.2494C13.479 11.1547 13.4858 11.0532 13.4994 10.9449C13.4994 10.8366 13.4994 10.735 13.4994 10.6403C13.513 10.532 13.5198 10.4169 13.5198 10.2951C13.5198 10.1868 13.5198 10.0717 13.5198 9.94987C13.5334 9.82804 13.5402 9.7062 13.5402 9.58437V9.19856C13.5402 9.17148 13.5402 9.13764 13.5402 9.09703C13.5538 9.05642 13.5607 9.02257 13.5607 8.9955V7.18828Z" fill="#FF9000"/>
<path d="M21.9323 5.29983C21.9323 5.90901 21.7826 6.45727 21.4832 6.94461C21.1838 7.43195 20.7823 7.81099 20.2788 8.08173C20.5237 8.27126 20.7483 8.49462 20.9524 8.75183C21.1566 8.9955 21.3267 9.26624 21.4628 9.56406C21.6125 9.86188 21.7282 10.1665 21.8098 10.4778C21.8915 10.7892 21.9323 11.0938 21.9323 11.3916V12.6912C21.9187 13.1244 21.8302 13.5305 21.6669 13.9095C21.5036 14.275 21.2791 14.5999 20.9933 14.8842C20.7075 15.1549 20.374 15.3715 19.993 15.534C19.6119 15.71 19.2036 15.798 18.7681 15.798H16.8492C16.754 15.798 16.6723 15.7641 16.6043 15.6964C16.5498 15.6287 16.5226 15.5475 16.5226 15.4528C16.5226 15.5475 16.4886 15.6287 16.4205 15.6964C16.3525 15.7641 16.2776 15.798 16.196 15.798H15.114C15.114 15.6761 15.1344 15.5881 15.1753 15.534C15.2297 15.4798 15.2841 15.4189 15.3386 15.3512C15.393 15.2971 15.4407 15.2159 15.4815 15.1076C15.5359 14.9993 15.5631 14.8301 15.5631 14.5999V8.93458C15.5223 8.52846 15.3318 8.23064 14.9915 8.04112C15.1685 7.93282 15.359 7.87868 15.5631 7.87868V1.19805C15.5631 0.967914 15.5359 0.798698 15.4815 0.6904C15.4407 0.582102 15.393 0.500878 15.3386 0.446729C15.2841 0.379043 15.2297 0.318126 15.1753 0.263976C15.1344 0.209827 15.114 0.121835 15.114 0H16.196C16.2776 0 16.3525 0.0338431 16.4205 0.101529C16.4886 0.155678 16.5226 0.230133 16.5226 0.324894C16.5226 0.108298 16.6315 0 16.8492 0H18.7681C19.2036 0 19.6119 0.0812236 19.993 0.243671C20.374 0.406118 20.7075 0.629483 20.9933 0.913764C21.2791 1.18451 21.5036 1.5094 21.6669 1.88845C21.8302 2.26749 21.9187 2.66684 21.9323 3.08649V5.29983ZM16.6655 6.80247C16.6655 6.7077 16.6587 6.61971 16.6451 6.53849C16.6451 6.44373 16.6451 6.35574 16.6451 6.27451V5.74656C16.6315 5.39459 16.6247 5.06293 16.6247 4.75157C16.6247 4.44022 16.6179 4.14917 16.6043 3.87842C16.5906 3.72951 16.5838 3.59414 16.5838 3.4723C16.5838 3.35047 16.577 3.2354 16.5634 3.1271C16.5634 3.01881 16.5566 2.91728 16.543 2.82252C16.543 2.71422 16.543 2.62623 16.543 2.55854C16.543 2.47732 16.5362 2.40286 16.5226 2.33517C16.5226 2.26749 16.5226 2.21334 16.5226 2.17273V2.05089C16.509 2.06443 16.5022 2.07797 16.5022 2.0915V2.17273C16.5022 2.21334 16.4954 2.26749 16.4818 2.33517C16.4818 2.40286 16.4818 2.47732 16.4818 2.55854C16.4818 2.62623 16.475 2.71422 16.4614 2.82252C16.4614 2.91728 16.4614 3.01881 16.4614 3.1271C16.4477 3.2354 16.4409 3.35047 16.4409 3.4723C16.4409 3.59414 16.4341 3.72951 16.4205 3.87842C16.4069 4.14917 16.4001 4.44022 16.4001 4.75157C16.4001 5.06293 16.3933 5.39459 16.3797 5.74656V6.27451C16.3797 6.35574 16.3797 6.44373 16.3797 6.53849C16.3797 6.61971 16.3729 6.7077 16.3593 6.80247V8.97519C16.3593 9.02934 16.3593 9.07672 16.3593 9.11733C16.3729 9.15795 16.3797 9.20533 16.3797 9.25947V10.0311C16.3797 10.2071 16.3797 10.3831 16.3797 10.5591C16.3933 10.7215 16.4001 10.8772 16.4001 11.0261C16.4001 11.175 16.4001 11.3239 16.4001 11.4728C16.4137 11.6217 16.4205 11.7706 16.4205 11.9195C16.4341 11.9872 16.4409 12.0549 16.4409 12.1226C16.4409 12.1768 16.4409 12.2377 16.4409 12.3054C16.4409 12.373 16.4409 12.434 16.4409 12.4881C16.4546 12.5423 16.4614 12.5964 16.4614 12.6506C16.4614 12.7589 16.4614 12.8672 16.4614 12.9754C16.475 13.0702 16.4818 13.1582 16.4818 13.2394C16.4818 13.3206 16.4818 13.3951 16.4818 13.4628C16.4954 13.5169 16.5022 13.5643 16.5022 13.6049V13.7065C16.5022 13.72 16.509 13.7335 16.5226 13.7471V13.6049C16.5226 13.5643 16.5226 13.5169 16.5226 13.4628C16.5362 13.3951 16.543 13.3206 16.543 13.2394C16.543 13.1582 16.543 13.0702 16.543 12.9754C16.5566 12.8672 16.5634 12.7589 16.5634 12.6506C16.577 12.5964 16.5838 12.5423 16.5838 12.4881C16.5838 12.434 16.5838 12.373 16.5838 12.3054C16.5838 12.2377 16.5838 12.1768 16.5838 12.1226C16.5974 12.0549 16.6043 11.9872 16.6043 11.9195C16.6043 11.7706 16.6043 11.6217 16.6043 11.4728C16.6179 11.3239 16.6247 11.175 16.6247 11.0261C16.6247 10.8772 16.6247 10.7215 16.6247 10.5591C16.6383 10.3831 16.6451 10.2071 16.6451 10.0311V9.52345C16.6451 9.40162 16.6519 9.31362 16.6655 9.25947V6.80247ZM20.8708 12.285C20.8572 12.3257 20.8504 12.3933 20.8504 12.4881V12.8536C20.8504 12.9213 20.8436 12.9822 20.83 13.0364C20.83 13.0905 20.83 13.1447 20.83 13.1988C20.83 13.253 20.8232 13.3003 20.8095 13.341C20.8095 13.3816 20.8095 13.4222 20.8095 13.4628V13.5237C20.7959 13.5372 20.7891 13.5575 20.7891 13.5846V13.6862C20.7755 13.6997 20.7687 13.7132 20.7687 13.7268V13.7674C20.7687 13.7809 20.7619 13.7945 20.7483 13.808C20.7483 13.808 20.7483 13.8148 20.7483 13.8283C20.7483 13.8418 20.7415 13.8554 20.7279 13.8689H20.7483C20.7483 13.8689 20.7551 13.8554 20.7687 13.8283C20.7687 13.8283 20.7755 13.8148 20.7891 13.7877C20.8027 13.7741 20.8095 13.7606 20.8095 13.7471C20.8232 13.7335 20.83 13.72 20.83 13.7065C20.8436 13.6929 20.8504 13.6794 20.8504 13.6658C20.864 13.6523 20.8708 13.632 20.8708 13.6049C20.898 13.5779 20.9116 13.544 20.9116 13.5034C20.9388 13.4493 20.9661 13.3545 20.9933 13.2191C21.0205 13.1379 21.0341 13.0837 21.0341 13.0567C21.0477 13.0296 21.0545 13.0025 21.0545 12.9754C21.0545 12.9348 21.0613 12.901 21.0749 12.8739C21.0749 12.8468 21.0749 12.8198 21.0749 12.7927C21.0885 12.7521 21.0953 12.7182 21.0953 12.6912C21.1089 12.6506 21.1158 12.5896 21.1158 12.5084C21.1294 12.4407 21.1362 12.373 21.1362 12.3054C21.1362 12.2377 21.143 12.17 21.1566 12.1023V11.2494C21.1566 11.1818 21.1498 11.1141 21.1362 11.0464C21.1362 10.9787 21.1294 10.911 21.1158 10.8433C21.1158 10.7621 21.1089 10.7012 21.0953 10.6606C21.0953 10.6335 21.0885 10.6064 21.0749 10.5794C21.0749 10.5387 21.0749 10.5049 21.0749 10.4778C21.0613 10.4508 21.0545 10.4237 21.0545 10.3966C21.0545 10.356 21.0477 10.3221 21.0341 10.2951C21.0341 10.268 21.0273 10.2409 21.0137 10.2139C21.0137 10.1868 21.0137 10.1597 21.0137 10.1326C20.9865 10.0514 20.9729 10.004 20.9729 9.99049C20.9592 9.94987 20.9388 9.90249 20.9116 9.84834C20.9116 9.80773 20.898 9.77389 20.8708 9.74682C20.8708 9.7062 20.8572 9.67236 20.83 9.64529C20.8027 9.59114 20.7823 9.55053 20.7687 9.52345C20.7551 9.50991 20.7483 9.49638 20.7483 9.48284H20.7279C20.7279 9.48284 20.7347 9.49638 20.7483 9.52345C20.7483 9.53699 20.7483 9.55053 20.7483 9.56406C20.7619 9.56406 20.7687 9.57083 20.7687 9.58437C20.7687 9.61144 20.7755 9.63852 20.7891 9.66559V9.76712C20.8027 9.7942 20.8095 9.82804 20.8095 9.86865C20.8095 9.93634 20.8163 9.98372 20.83 10.0108V10.1529C20.8436 10.2071 20.8504 10.2612 20.8504 10.3154C20.8504 10.3695 20.8504 10.4304 20.8504 10.4981V10.6809C20.8504 10.708 20.8504 10.7418 20.8504 10.7824C20.864 10.8095 20.8708 10.8366 20.8708 10.8636V12.285ZM20.0338 11.3916C20.0338 11.2156 20.027 10.9652 20.0134 10.6403C19.9998 10.3154 19.9522 9.99049 19.8705 9.66559C19.7888 9.3407 19.6596 9.06318 19.4826 8.83305C19.3193 8.58938 19.0744 8.46755 18.7477 8.46755H18.0128C17.8631 8.46755 17.7338 8.5217 17.625 8.62999C17.5161 8.73829 17.4616 8.86689 17.4616 9.0158V14.2953C17.4616 14.4442 17.5161 14.5728 17.625 14.6811C17.7338 14.7759 17.8631 14.8301 18.0128 14.8436H18.7477C19.0744 14.8436 19.3193 14.7624 19.4826 14.5999C19.6596 14.4239 19.7888 14.2209 19.8705 13.9907C19.9522 13.7606 19.9998 13.5169 20.0134 13.2597C20.027 13.0025 20.0338 12.7859 20.0338 12.6099V11.3916ZM20.0338 3.16772C20.0338 2.99173 20.027 2.7819 20.0134 2.53823C19.9998 2.28103 19.9522 2.03736 19.8705 1.80722C19.7888 1.57709 19.6596 1.3808 19.4826 1.21835C19.3193 1.04237 19.0744 0.954377 18.7477 0.954377H18.0128C17.8631 0.954377 17.7338 1.00853 17.625 1.11682C17.5161 1.22512 17.4616 1.35372 17.4616 1.50263V6.96491C17.4616 7.11382 17.5161 7.24243 17.625 7.35072C17.7338 7.45902 17.8631 7.51317 18.0128 7.51317H18.7477C19.0744 7.51317 19.3193 7.43195 19.4826 7.2695C19.6596 7.10705 19.7888 6.91076 19.8705 6.68063C19.9522 6.43696 19.9998 6.19329 20.0134 5.94962C20.027 5.69241 20.0338 5.47582 20.0338 5.29983V3.16772ZM20.9524 5.84809C20.9797 5.76687 20.9933 5.71272 20.9933 5.68564C21.0205 5.63149 21.0341 5.57734 21.0341 5.5232C21.0477 5.49612 21.0545 5.46905 21.0545 5.44197C21.0545 5.40136 21.0613 5.36752 21.0749 5.34044C21.0749 5.31337 21.0749 5.28629 21.0749 5.25922C21.0885 5.21861 21.0953 5.178 21.0953 5.13738C21.1089 5.09677 21.1158 5.02909 21.1158 4.93433C21.1294 4.86664 21.1362 4.79895 21.1362 4.73127C21.1362 4.66358 21.143 4.59589 21.1566 4.52821V4.08148C21.1566 3.93257 21.1566 3.79043 21.1566 3.65506C21.1566 3.50615 21.1498 3.36401 21.1362 3.22863C21.1226 3.18802 21.1158 3.15418 21.1158 3.1271C21.1158 3.08649 21.1089 3.05265 21.0953 3.02557C21.0953 2.93081 21.0885 2.86313 21.0749 2.82252C21.0613 2.75483 21.0477 2.69391 21.0341 2.63976C21.0341 2.58561 21.0273 2.53147 21.0137 2.47732C20.9865 2.39609 20.9729 2.34194 20.9729 2.31487C20.9456 2.26072 20.932 2.22011 20.932 2.19303C20.9048 2.13889 20.8844 2.09827 20.8708 2.0712C20.8708 2.03059 20.8572 1.99674 20.83 1.96967C20.8163 1.92906 20.7959 1.88168 20.7687 1.82753L20.7279 1.78692V1.80722C20.7279 1.82076 20.7279 1.82753 20.7279 1.82753C20.7415 1.82753 20.7483 1.8343 20.7483 1.84783C20.7619 1.86137 20.7687 1.88168 20.7687 1.90875C20.7687 1.93583 20.7755 1.9629 20.7891 1.98998V2.0915C20.8027 2.11858 20.8095 2.15919 20.8095 2.21334C20.8095 2.24041 20.8095 2.26749 20.8095 2.29456C20.8232 2.3081 20.83 2.32841 20.83 2.35548V2.49762C20.8436 2.55177 20.8504 2.60592 20.8504 2.66007C20.8504 2.71422 20.8504 2.77514 20.8504 2.84282V3.04588C20.8504 3.07295 20.8504 3.1068 20.8504 3.14741C20.864 3.17448 20.8708 3.20156 20.8708 3.22863V4.73127C20.8572 4.77188 20.8504 4.83957 20.8504 4.93433V5.32014C20.8504 5.38782 20.8436 5.44874 20.83 5.50289C20.83 5.55704 20.83 5.61119 20.83 5.66534C20.83 5.71949 20.8232 5.77364 20.8095 5.82778C20.8095 5.8684 20.8095 5.90901 20.8095 5.94962C20.8095 6.01731 20.8027 6.05792 20.7891 6.07145V6.19329C20.7755 6.19329 20.7687 6.20683 20.7687 6.2339V6.27451C20.7687 6.28805 20.7619 6.30159 20.7483 6.31512C20.7483 6.31512 20.7483 6.32189 20.7483 6.33543C20.7483 6.34897 20.7415 6.3625 20.7279 6.37604L20.7687 6.33543C20.7687 6.32189 20.7687 6.31512 20.7687 6.31512C20.7823 6.30159 20.7891 6.28805 20.7891 6.27451C20.8027 6.27451 20.8095 6.26098 20.8095 6.2339C20.8232 6.2339 20.83 6.22036 20.83 6.19329C20.8436 6.19329 20.8504 6.17975 20.8504 6.15268C20.864 6.13914 20.8708 6.11883 20.8708 6.09176C20.898 6.06469 20.9116 6.03084 20.9116 5.99023C20.9388 5.90901 20.9524 5.86163 20.9524 5.84809Z" fill="#FF9000"/>
<path d="M29.6538 13.9095C29.7082 14.1397 29.7694 14.3089 29.8375 14.4172C29.9055 14.5255 29.9736 14.6135 30.0416 14.6811C30.1097 14.7488 30.1709 14.8097 30.2254 14.8639C30.2798 14.918 30.3206 15.006 30.3478 15.1279H29.2659C29.1706 15.1279 29.0822 15.094 29.0005 15.0263C28.9325 14.9587 28.8916 14.8774 28.878 14.7827C28.8916 14.8774 28.8712 14.9587 28.8168 15.0263C28.7623 15.094 28.6943 15.1279 28.6126 15.1279H27.5307C27.5035 15.006 27.5103 14.918 27.5511 14.8639C27.5919 14.8097 27.6328 14.7556 27.6736 14.7014C27.7144 14.6338 27.7484 14.5458 27.7757 14.4375C27.8029 14.3156 27.7961 14.1329 27.7553 13.8892V13.8689L27.3061 11.5743C27.2789 11.439 27.2041 11.3239 27.0816 11.2291C26.9591 11.1208 26.823 11.0667 26.6733 11.0667H25.2647C25.115 11.0667 24.9789 11.1208 24.8565 11.2291C24.734 11.3239 24.6591 11.439 24.6319 11.5743L24.2032 13.8689V13.8892C24.1624 14.1329 24.1488 14.3156 24.1624 14.4375C24.1896 14.5458 24.2236 14.6338 24.2645 14.7014C24.3189 14.7556 24.3597 14.8097 24.3869 14.8639C24.4278 14.918 24.4414 15.006 24.4278 15.1279H23.3458C23.2506 15.1279 23.1757 15.094 23.1213 15.0263C23.0668 14.9587 23.0464 14.8774 23.06 14.7827C23.0464 14.8774 23.0056 14.9587 22.9375 15.0263C22.8695 15.094 22.7878 15.1279 22.6926 15.1279H21.6106C21.6242 15.006 21.6583 14.918 21.7127 14.8639C21.7671 14.8097 21.8284 14.7488 21.8964 14.6811C21.9645 14.6135 22.0325 14.5255 22.1006 14.4172C22.1686 14.3089 22.2299 14.1397 22.2843 13.9095L23.2029 8.97519C23.2301 8.78567 23.2097 8.60969 23.1417 8.44724C23.0736 8.28479 22.9648 8.15619 22.8151 8.06143C23.0328 7.96667 23.2301 7.91929 23.4071 7.91929L24.5094 2.13212C24.5503 1.90198 24.5571 1.73277 24.5298 1.62447C24.5026 1.50263 24.4686 1.41464 24.4278 1.36049C24.3869 1.29281 24.3461 1.23189 24.3053 1.17774C24.2645 1.12359 24.2577 1.0356 24.2849 0.913764H25.6526C25.8567 0.940839 25.9588 1.05591 25.9588 1.25896C25.9588 1.1642 25.986 1.08975 26.0405 1.0356C26.1085 0.967913 26.1834 0.927301 26.265 0.913764H27.6532C27.6804 1.0356 27.6736 1.12359 27.6328 1.17774C27.6056 1.23189 27.5715 1.29281 27.5307 1.36049C27.4899 1.41464 27.4558 1.50263 27.4286 1.62447C27.4014 1.73277 27.4082 1.90198 27.449 2.13212L28.531 7.91929C28.6399 7.91929 28.7419 7.93283 28.8372 7.9599C28.9325 7.98697 29.0277 8.02082 29.123 8.06143C28.8236 8.25095 28.6943 8.55554 28.7351 8.97519L29.6538 13.9095ZM24.7544 6.64002C24.7816 6.55879 24.7952 6.48434 24.7952 6.41665C24.8088 6.33543 24.8224 6.26098 24.836 6.19329C24.9041 5.88193 24.9585 5.59088 24.9994 5.32014C25.0402 5.03585 25.081 4.77865 25.1218 4.54851C25.1491 4.44022 25.1627 4.33192 25.1627 4.22362C25.1763 4.11532 25.1899 4.00702 25.2035 3.89873C25.2171 3.80397 25.2307 3.71597 25.2443 3.63475C25.2579 3.55353 25.2715 3.47907 25.2852 3.41139C25.2988 3.3437 25.3056 3.28278 25.3056 3.22863C25.3056 3.16095 25.3124 3.1068 25.326 3.06619V2.98496L25.3056 3.06619C25.292 3.1068 25.2784 3.15418 25.2647 3.20833C25.2511 3.26248 25.2375 3.32339 25.2239 3.39108C25.1967 3.45877 25.1763 3.53999 25.1627 3.63475C25.1491 3.71597 25.1287 3.7972 25.1014 3.87842C25.0742 3.98672 25.047 4.09502 25.0198 4.20331C25.0062 4.31161 24.9858 4.41991 24.9585 4.52821C24.8905 4.75834 24.8224 5.00878 24.7544 5.27953C24.7 5.53673 24.6387 5.82102 24.5707 6.13237C24.5707 6.21359 24.5639 6.28805 24.5503 6.35574C24.5366 6.42342 24.5162 6.49788 24.489 6.5791C24.4754 6.66032 24.4618 6.74155 24.4482 6.82277C24.4346 6.89046 24.421 6.96491 24.4074 7.04614C24.3665 7.19504 24.3257 7.35072 24.2849 7.51317C24.2577 7.67562 24.2304 7.83806 24.2032 8.00051C24.176 8.14942 24.142 8.3051 24.1011 8.46755C24.0739 8.62999 24.0467 8.78567 24.0195 8.93458C24.0059 8.97519 23.9991 9.0158 23.9991 9.05642C23.9991 9.08349 23.9923 9.11733 23.9787 9.15795C23.9514 9.26624 23.9378 9.34747 23.9378 9.40162C23.897 9.53699 23.8698 9.6859 23.8562 9.84834C23.829 9.99725 23.8017 10.1462 23.7745 10.2951C23.7473 10.444 23.7269 10.5794 23.7133 10.7012C23.6724 11.0125 23.6316 11.2698 23.5908 11.4728C23.5636 11.5811 23.5432 11.6894 23.5296 11.7977C23.5159 11.906 23.5023 12.0143 23.4887 12.1226C23.4615 12.2174 23.4411 12.3121 23.4275 12.4069C23.4275 12.4881 23.4207 12.5626 23.4071 12.6302C23.3935 12.6979 23.3867 12.7589 23.3867 12.813C23.3867 12.8671 23.3798 12.9145 23.3662 12.9551C23.3662 12.9822 23.3594 13.0025 23.3458 13.0161C23.3458 13.0161 23.3458 13.0228 23.3458 13.0364V13.0567C23.3594 13.0567 23.3662 13.0499 23.3662 13.0364C23.3662 13.0093 23.373 12.9822 23.3867 12.9551C23.4003 12.9281 23.4071 12.8875 23.4071 12.8333C23.4207 12.7656 23.4411 12.6979 23.4683 12.6302C23.4955 12.5626 23.5159 12.4881 23.5296 12.4069C23.5568 12.3257 23.584 12.2377 23.6112 12.1429C23.6384 12.0481 23.6588 11.9466 23.6724 11.8383C23.6997 11.73 23.7201 11.6217 23.7337 11.5134C23.7609 11.4051 23.7881 11.2901 23.8153 11.1682C23.8562 11.0329 23.8902 10.8975 23.9174 10.7621C23.9446 10.6267 23.9719 10.4846 23.9991 10.3357C24.0399 10.1868 24.0807 10.0379 24.1216 9.88896C24.1352 9.82127 24.1488 9.75358 24.1624 9.6859C24.176 9.60467 24.1896 9.53022 24.2032 9.46253L24.2645 9.21886C24.2781 9.17825 24.2849 9.13764 24.2849 9.09703C24.2849 9.05642 24.2917 9.0158 24.3053 8.97519C24.3325 8.82628 24.3665 8.67737 24.4074 8.52846C24.4482 8.36602 24.4822 8.20357 24.5094 8.04112C24.5366 7.89221 24.5639 7.73653 24.5911 7.57409C24.6183 7.41164 24.6455 7.25596 24.6727 7.10705C24.6863 7.02583 24.7 6.94461 24.7136 6.86338C24.7272 6.78216 24.7408 6.7077 24.7544 6.64002ZM26.4896 10.1123C26.6393 10.0988 26.755 10.0446 26.8366 9.94987C26.9319 9.84158 26.9659 9.71297 26.9387 9.56406L26.8162 8.97519C26.7618 8.78567 26.6665 8.60969 26.5304 8.44724C26.4079 8.28479 26.2582 8.15619 26.0813 8.06143C26.2446 7.96667 26.4215 7.91929 26.6121 7.91929L25.9588 4.44698L25.3056 7.91929C25.4825 7.91929 25.6662 7.96667 25.8567 8.06143C25.6662 8.15619 25.5029 8.28479 25.3668 8.44724C25.2443 8.60969 25.1627 8.78567 25.1218 8.97519L25.0198 9.56406C24.9926 9.71297 25.0198 9.84158 25.1014 9.94987C25.1831 10.0446 25.292 10.0988 25.4281 10.1123H26.4896ZM28.5514 12.9551C28.5514 12.9822 28.5514 13.0025 28.5514 13.0161C28.565 13.0161 28.5718 13.0228 28.5718 13.0364V12.9551C28.5582 12.9145 28.5514 12.8671 28.5514 12.813C28.5514 12.7589 28.5446 12.6979 28.531 12.6302C28.5174 12.5626 28.5038 12.4881 28.4902 12.4069C28.4902 12.3121 28.4765 12.2174 28.4493 12.1226C28.4357 12.0143 28.4221 11.906 28.4085 11.7977C28.3949 11.6894 28.3745 11.5811 28.3473 11.4728C28.3064 11.2698 28.2656 11.0125 28.2248 10.7012C28.1976 10.5794 28.1703 10.444 28.1431 10.2951C28.1295 10.1462 28.1091 9.99725 28.0819 9.84834C28.0547 9.76712 28.0342 9.69267 28.0206 9.62498C28.0206 9.55729 28.007 9.48284 27.9798 9.40162C27.9798 9.34747 27.9662 9.26624 27.939 9.15795C27.939 9.11733 27.9322 9.08349 27.9186 9.05642C27.9186 9.0158 27.9186 8.97519 27.9186 8.93458C27.8913 8.78567 27.8573 8.62999 27.8165 8.46755C27.7893 8.3051 27.7621 8.14942 27.7348 8.00051C27.7076 7.83806 27.6736 7.67562 27.6328 7.51317C27.6056 7.35072 27.5715 7.19504 27.5307 7.04614C27.5171 6.96491 27.5035 6.89046 27.4899 6.82277C27.4763 6.74155 27.4627 6.66032 27.449 6.5791C27.4218 6.49788 27.4014 6.42342 27.3878 6.35574C27.3742 6.28805 27.3606 6.21359 27.347 6.13237C27.2789 5.82102 27.2109 5.53673 27.1428 5.27953C27.0884 5.00878 27.0408 4.75834 26.9999 4.52821C26.9727 4.41991 26.9455 4.31161 26.9183 4.20331C26.8911 4.09502 26.8638 3.98672 26.8366 3.87842C26.8094 3.7972 26.7822 3.71597 26.755 3.63475C26.7414 3.53999 26.7209 3.45877 26.6937 3.39108C26.6801 3.32339 26.6665 3.26248 26.6529 3.20833C26.6393 3.15418 26.6257 3.1068 26.6121 3.06619L26.5917 2.98496V3.06619C26.6053 3.13387 26.6257 3.24894 26.6529 3.41139C26.6529 3.47907 26.6597 3.55353 26.6733 3.63475C26.6869 3.71597 26.7005 3.80397 26.7141 3.89873C26.7277 4.00702 26.7414 4.11532 26.755 4.22362C26.7686 4.33192 26.789 4.44022 26.8162 4.54851C26.857 4.77865 26.8979 5.03585 26.9387 5.32014C26.9795 5.59088 27.0272 5.88193 27.0816 6.19329C27.0952 6.26098 27.102 6.33543 27.102 6.41665C27.1156 6.48434 27.136 6.55879 27.1632 6.64002C27.1769 6.7077 27.1905 6.78216 27.2041 6.86338C27.2177 6.94461 27.2313 7.02583 27.2449 7.10705C27.2721 7.25596 27.2993 7.41164 27.3266 7.57409C27.3674 7.73653 27.4014 7.89221 27.4286 8.04112C27.4558 8.20357 27.4899 8.36602 27.5307 8.52846C27.5715 8.67737 27.6056 8.82628 27.6328 8.97519C27.6464 9.0158 27.6532 9.05642 27.6532 9.09703C27.6532 9.13764 27.66 9.17825 27.6736 9.21886L27.7348 9.46253C27.7484 9.53022 27.7621 9.60467 27.7757 9.6859C27.7893 9.75358 27.8029 9.82127 27.8165 9.88896C27.8573 10.0379 27.8913 10.1868 27.9186 10.3357C27.9458 10.4846 27.973 10.6267 28.0002 10.7621C28.0274 10.8975 28.0547 11.0329 28.0819 11.1682C28.1227 11.2901 28.1567 11.4051 28.1839 11.5134C28.2112 11.6217 28.2384 11.73 28.2656 11.8383C28.2928 11.9466 28.32 12.0481 28.3473 12.1429C28.3881 12.3324 28.4289 12.4949 28.4697 12.6302C28.497 12.6979 28.5106 12.7656 28.5106 12.8333C28.5242 12.8875 28.5378 12.9281 28.5514 12.9551Z" fill="#FF9000"/>
<path d="M38.2189 15.9807C38.3686 16.0078 38.4706 16.0552 38.5251 16.1229C38.5931 16.1905 38.6408 16.2582 38.668 16.3259C38.6952 16.4071 38.7088 16.4951 38.7088 16.5899C38.2733 16.5899 37.865 16.5357 37.484 16.4274C37.1029 16.3191 36.7627 16.1432 36.4633 15.8995C36.1775 15.6558 35.9461 15.3377 35.7692 14.9451C35.6059 14.5525 35.5242 14.072 35.5242 13.5034V10.7215C35.5242 10.5455 35.5174 10.3289 35.5038 10.0717C35.4902 9.8145 35.4426 9.57083 35.3609 9.3407C35.2793 9.11057 35.15 8.91428 34.973 8.75183C34.8097 8.57584 34.5648 8.48785 34.2381 8.48785H33.4012C33.2787 8.51493 33.1698 8.58261 33.0745 8.69091C32.9929 8.78567 32.9521 8.90074 32.9521 9.03611V13.8892C32.9521 14.1329 32.9725 14.3156 33.0133 14.4375C33.0677 14.5458 33.1222 14.6338 33.1766 14.7014C33.231 14.7556 33.2787 14.8097 33.3195 14.8639C33.3739 14.918 33.4012 15.006 33.4012 15.1279H32.3192C32.2376 15.1279 32.1627 15.094 32.0947 15.0263C32.0266 14.9587 31.9926 14.8842 31.9926 14.803C31.9926 14.8842 31.9586 14.9587 31.8905 15.0263C31.8361 15.094 31.7612 15.1279 31.666 15.1279H30.6044C30.6044 15.006 30.6249 14.918 30.6657 14.8639C30.7201 14.8097 30.7746 14.7556 30.829 14.7014C30.8834 14.6338 30.9311 14.5458 30.9719 14.4375C31.0263 14.3292 31.0536 14.16 31.0536 13.9298V8.97519C31.0127 8.55554 30.8222 8.25095 30.482 8.06143C30.6317 7.96667 30.8222 7.91929 31.0536 7.91929V2.11181C31.0536 1.88168 31.0263 1.71246 30.9719 1.60416C30.9311 1.49587 30.8834 1.41464 30.829 1.36049C30.7746 1.29281 30.7201 1.23189 30.6657 1.17774C30.6249 1.12359 30.6044 1.0356 30.6044 0.913764H31.6864C31.768 0.913764 31.8429 0.947607 31.9109 1.01529C31.979 1.06944 32.013 1.1439 32.013 1.23866C32.013 1.02206 32.1219 0.913764 32.3396 0.913764H34.2586C34.6941 0.913764 35.1023 0.994988 35.4834 1.15744C35.8645 1.31988 36.1979 1.54325 36.4837 1.82753C36.7695 2.09827 36.994 2.42317 37.1573 2.80221C37.3207 3.18125 37.4091 3.5806 37.4227 4.00026V5.32014C37.4227 5.8887 37.2866 6.40989 37.0144 6.88369C36.7423 7.35749 36.3748 7.73654 35.9121 8.02082C36.3748 8.29156 36.7423 8.6706 37.0144 9.15795C37.2866 9.63175 37.4227 10.1529 37.4227 10.7215V13.4222C37.4227 13.7065 37.4227 13.9975 37.4227 14.2953C37.4363 14.5796 37.4704 14.8436 37.5248 15.0873C37.5792 15.3174 37.6609 15.5137 37.7698 15.6761C37.8786 15.8386 38.0283 15.9401 38.2189 15.9807ZM36.3612 4.97494C36.3476 5.00201 36.3408 5.03586 36.3408 5.07647V5.5435C36.3272 5.59765 36.3204 5.6518 36.3204 5.70595C36.3204 5.74656 36.3204 5.78717 36.3204 5.82778C36.3204 5.85486 36.3136 5.87516 36.3 5.8887C36.3 5.90224 36.3 5.92254 36.3 5.94962V6.07145C36.2863 6.09853 36.2795 6.13237 36.2795 6.17298C36.2795 6.20006 36.2727 6.22713 36.2591 6.25421C36.2591 6.28128 36.2523 6.30159 36.2387 6.31512V6.35574L36.2183 6.39635C36.2183 6.39635 36.2319 6.38958 36.2591 6.37604V6.35574L36.2795 6.33543C36.2932 6.32189 36.3 6.31512 36.3 6.31512C36.3 6.30159 36.3068 6.28805 36.3204 6.27451C36.334 6.24744 36.3476 6.22036 36.3612 6.19329C36.3748 6.15268 36.3884 6.11883 36.402 6.09176C36.4156 6.06469 36.4224 6.05115 36.4224 6.05115C36.4224 6.03761 36.4292 6.01731 36.4429 5.99023C36.4565 5.96316 36.4633 5.94285 36.4633 5.92931C36.4633 5.90224 36.4701 5.87516 36.4837 5.84809C36.4973 5.82101 36.5041 5.80071 36.5041 5.78717C36.5041 5.77363 36.5109 5.75333 36.5245 5.72625C36.5245 5.69918 36.5245 5.67887 36.5245 5.66534C36.5381 5.63826 36.5449 5.61119 36.5449 5.58411C36.5585 5.52996 36.5653 5.47582 36.5653 5.42167C36.5789 5.36752 36.5926 5.31337 36.6062 5.25922C36.6198 5.21861 36.6266 5.15769 36.6266 5.07647C36.6266 5.04939 36.6266 5.02232 36.6266 4.99524C36.6402 4.96817 36.647 4.94109 36.647 4.91402V4.20331C36.647 4.12209 36.6402 4.06117 36.6266 4.02056V3.93934C36.6266 3.91226 36.6198 3.89873 36.6062 3.89873C36.6062 3.88519 36.6062 3.86488 36.6062 3.83781C36.6062 3.77012 36.5926 3.66859 36.5653 3.53322C36.5517 3.50615 36.5449 3.47907 36.5449 3.452C36.5449 3.42492 36.5381 3.39785 36.5245 3.37077C36.5245 3.35724 36.5177 3.35047 36.5041 3.35047C36.5041 3.33693 36.5041 3.32339 36.5041 3.30986C36.5041 3.29632 36.4973 3.28955 36.4837 3.28955C36.4837 3.27601 36.4837 3.26248 36.4837 3.24894C36.4701 3.22186 36.4633 3.20156 36.4633 3.18802C36.4633 3.17448 36.4565 3.15418 36.4429 3.1271C36.4292 3.10003 36.4224 3.07972 36.4224 3.06619C36.4224 3.05265 36.4156 3.03234 36.402 3.00527C36.3884 2.99173 36.3816 2.97819 36.3816 2.96466C36.3816 2.95112 36.3748 2.93758 36.3612 2.92405C36.334 2.8699 36.3204 2.84282 36.3204 2.84282C36.3068 2.82928 36.3 2.82252 36.3 2.82252C36.3 2.80898 36.2932 2.79544 36.2795 2.7819C36.2659 2.76837 36.2591 2.75483 36.2591 2.74129C36.2455 2.72775 36.2387 2.71422 36.2387 2.70068H36.2183C36.2183 2.70068 36.2251 2.71422 36.2387 2.74129V2.7819C36.2523 2.79544 36.2591 2.82252 36.2591 2.86313C36.2591 2.87666 36.2591 2.8902 36.2591 2.90374C36.2727 2.90374 36.2795 2.91728 36.2795 2.94435C36.2795 2.98496 36.2863 3.01881 36.3 3.04588V3.14741C36.3 3.17448 36.3 3.19479 36.3 3.20833C36.3136 3.22186 36.3204 3.24217 36.3204 3.26924C36.3204 3.39108 36.3272 3.48584 36.3408 3.55353V3.87842C36.3544 3.94611 36.3612 4.0544 36.3612 4.20331V4.97494ZM32.1559 7.06644C32.1559 6.99876 32.1491 6.9243 32.1355 6.84308C32.1355 6.76185 32.1355 6.68063 32.1355 6.59941V6.15268C32.1219 5.85486 32.1151 5.57058 32.1151 5.29983C32.1151 5.02909 32.1083 4.77188 32.0947 4.52821C32.0811 4.41991 32.0743 4.31161 32.0743 4.20331C32.0743 4.09502 32.0675 3.99349 32.0538 3.89873C32.0538 3.79043 32.047 3.69567 32.0334 3.61444C32.0334 3.53322 32.0334 3.45877 32.0334 3.39108C32.0334 3.32339 32.0266 3.26248 32.013 3.20833C32.013 3.15418 32.013 3.1068 32.013 3.06619V2.96466C31.9994 2.96466 31.9926 2.97143 31.9926 2.98496V3.06619C31.9926 3.1068 31.9858 3.15418 31.9722 3.20833C31.9722 3.26248 31.9722 3.32339 31.9722 3.39108C31.9722 3.45877 31.9654 3.53322 31.9518 3.61444C31.9518 3.69567 31.9518 3.79043 31.9518 3.89873C31.9382 3.99349 31.9314 4.09502 31.9314 4.20331C31.9314 4.31161 31.9245 4.41991 31.9109 4.52821C31.8973 4.77188 31.8905 5.02909 31.8905 5.29983C31.8905 5.57058 31.8837 5.85486 31.8701 6.15268V6.59941C31.8701 6.68063 31.8633 6.76185 31.8497 6.84308C31.8497 6.9243 31.8497 6.99876 31.8497 7.06644V8.95489C31.8497 9.06318 31.8565 9.14441 31.8701 9.19856V9.86865C31.8701 10.0176 31.8701 10.1665 31.8701 10.3154C31.8837 10.4508 31.8905 10.5861 31.8905 10.7215C31.8905 10.8704 31.8905 11.0058 31.8905 11.1276C31.9041 11.2494 31.9109 11.3713 31.9109 11.4931C31.9245 11.615 31.9314 11.73 31.9314 11.8383C31.9314 11.9331 31.9382 12.0346 31.9518 12.1429C31.9518 12.2377 31.9518 12.3257 31.9518 12.4069C31.9654 12.4881 31.9722 12.5626 31.9722 12.6302C31.9722 12.6979 31.9722 12.7656 31.9722 12.8333C31.9858 12.8875 31.9926 12.9281 31.9926 12.9551V13.0567C31.9926 13.0702 31.9994 13.077 32.013 13.077V12.9551C32.013 12.9281 32.013 12.8875 32.013 12.8333C32.0266 12.7656 32.0334 12.6979 32.0334 12.6302C32.0334 12.5626 32.0334 12.4881 32.0334 12.4069C32.047 12.3257 32.0538 12.2377 32.0538 12.1429C32.0675 12.0346 32.0743 11.9331 32.0743 11.8383C32.0743 11.73 32.0811 11.615 32.0947 11.4931C32.0947 11.3713 32.0947 11.2494 32.0947 11.1276C32.1083 11.0058 32.1151 10.8704 32.1151 10.7215C32.1151 10.5861 32.1151 10.4508 32.1151 10.3154C32.1287 10.1665 32.1355 10.0176 32.1355 9.86865V9.42192C32.1355 9.31362 32.1423 9.23917 32.1559 9.19856V7.06644ZM35.5242 4.08148C35.5242 3.9055 35.5174 3.6889 35.5038 3.43169C35.4902 3.17448 35.4426 2.93081 35.3609 2.70068C35.2793 2.47055 35.15 2.27426 34.973 2.11181C34.8097 1.93583 34.5648 1.84783 34.2381 1.84783H33.5032C33.3535 1.86137 33.2242 1.92229 33.1154 2.03059C33.0065 2.13889 32.9521 2.26749 32.9521 2.4164V6.98522C32.9521 7.13413 33.0065 7.26273 33.1154 7.37103C33.2242 7.47933 33.3535 7.53348 33.5032 7.53348H34.2381C34.5648 7.53348 34.8097 7.45225 34.973 7.28981C35.15 7.12736 35.2793 6.93107 35.3609 6.70094C35.4426 6.45727 35.4902 6.21359 35.5038 5.96992C35.5174 5.71272 35.5242 5.49612 35.5242 5.32014V4.08148ZM36.892 15.2091C36.892 15.2091 36.8852 15.2023 36.8715 15.1888L36.8511 15.1685C36.8375 15.1414 36.8239 15.1143 36.8103 15.0873C36.8103 15.0602 36.7967 15.0331 36.7695 15.006C36.7559 14.9654 36.7423 14.9248 36.7287 14.8842C36.715 14.8301 36.7014 14.7691 36.6878 14.7014C36.6606 14.5661 36.647 14.4375 36.647 14.3156C36.6334 14.2479 36.6266 14.1803 36.6266 14.1126C36.6266 14.0314 36.6266 13.9434 36.6266 13.8486V12.7724C36.6266 12.6776 36.6266 12.5829 36.6266 12.4881C36.6266 12.3933 36.6334 12.2918 36.647 12.1835C36.647 12.0888 36.647 11.994 36.647 11.8992C36.647 11.8045 36.6402 11.7097 36.6266 11.615V11.3307C36.6266 11.1953 36.6198 11.1005 36.6062 11.0464C36.6062 10.9516 36.5994 10.8636 36.5858 10.7824C36.5858 10.6877 36.5789 10.5997 36.5653 10.5184C36.5381 10.3289 36.5109 10.1665 36.4837 10.0311C36.4701 9.96341 36.4565 9.90249 36.4429 9.84834C36.4292 9.78066 36.4088 9.71297 36.3816 9.64529C36.3544 9.5776 36.334 9.52345 36.3204 9.48284C36.3068 9.44223 36.2863 9.40162 36.2591 9.361C36.2319 9.32039 36.2115 9.28655 36.1979 9.25947C36.1843 9.2324 36.1707 9.20533 36.1571 9.17825C36.1434 9.17825 36.1298 9.17148 36.1162 9.15795C36.1026 9.15795 36.0958 9.15118 36.0958 9.13764L36.1162 9.15795C36.1162 9.17148 36.123 9.18502 36.1366 9.19856C36.1366 9.21209 36.1366 9.22563 36.1366 9.23917C36.1503 9.23917 36.1571 9.25271 36.1571 9.27978C36.1707 9.29332 36.1775 9.30685 36.1775 9.32039C36.1775 9.33393 36.1843 9.35424 36.1979 9.38131C36.2115 9.43546 36.2319 9.53022 36.2591 9.66559C36.2727 9.73328 36.2795 9.80096 36.2795 9.86865C36.2932 9.93634 36.3068 10.004 36.3204 10.0717C36.3204 10.1394 36.3204 10.2139 36.3204 10.2951C36.334 10.3628 36.3408 10.444 36.3408 10.5387V13.0567C36.3408 13.1108 36.3408 13.1582 36.3408 13.1988C36.3544 13.2394 36.3612 13.2868 36.3612 13.341C36.3612 13.4357 36.3612 13.5305 36.3612 13.6252C36.3748 13.7065 36.3884 13.7877 36.402 13.8689C36.4156 13.9501 36.4224 14.0314 36.4224 14.1126C36.4361 14.1938 36.4497 14.2683 36.4633 14.3359C36.4905 14.4172 36.5109 14.4916 36.5245 14.5593C36.5381 14.6135 36.5585 14.6744 36.5858 14.7421C36.613 14.8097 36.6334 14.8639 36.647 14.9045C36.6606 14.9451 36.681 14.9857 36.7082 15.0263L36.7491 15.067C36.7627 15.0805 36.7695 15.094 36.7695 15.1076C36.7695 15.1076 36.7763 15.1143 36.7899 15.1279L36.8715 15.2091H36.892Z" fill="#FF9000"/>
<path d="M44.3399 5.32014C44.3399 5.8887 44.2038 6.40989 43.9316 6.88369C43.6594 7.35749 43.292 7.73654 42.8293 8.02082C43.292 8.29156 43.6594 8.6706 43.9316 9.15795C44.2038 9.63175 44.3399 10.1529 44.3399 10.7215V12.0414C44.3263 12.4746 44.2378 12.8807 44.0745 13.2597C43.9112 13.6252 43.6866 13.9501 43.4008 14.2344C43.115 14.5052 42.7816 14.7218 42.4006 14.8842C42.0195 15.0466 41.6112 15.1279 41.1757 15.1279H39.2364C39.1547 15.1279 39.0799 15.094 39.0118 15.0263C38.9438 14.9587 38.9098 14.8842 38.9098 14.803C38.9098 14.8842 38.8757 14.9587 38.8077 15.0263C38.7533 15.094 38.6784 15.1279 38.5831 15.1279H37.5216C37.5216 15.006 37.542 14.918 37.5828 14.8639C37.6373 14.8097 37.6917 14.7556 37.7462 14.7014C37.8006 14.6338 37.8482 14.5458 37.8891 14.4375C37.9435 14.3292 37.9707 14.16 37.9707 13.9298V8.97519C37.9299 8.55554 37.7394 8.25095 37.3991 8.06143C37.5488 7.96667 37.7394 7.91929 37.9707 7.91929V2.11181C37.9707 1.88168 37.9435 1.71246 37.8891 1.60416C37.8482 1.49587 37.8006 1.41464 37.7462 1.36049C37.6917 1.29281 37.6373 1.23189 37.5828 1.17774C37.542 1.12359 37.5216 1.0356 37.5216 0.913764H38.6036C38.6852 0.913764 38.7601 0.947607 38.8281 1.01529C38.8962 1.06944 38.9302 1.1439 38.9302 1.23866C38.9302 1.02206 39.039 0.913764 39.2568 0.913764H41.1757C41.6112 0.913764 42.0195 0.994988 42.4006 1.15744C42.7816 1.31988 43.115 1.54325 43.4008 1.82753C43.6866 2.09827 43.9112 2.42317 44.0745 2.80221C44.2378 3.18125 44.3263 3.5806 44.3399 4.00026V5.32014ZM39.0731 7.06644C39.0731 6.99876 39.0663 6.9243 39.0527 6.84308C39.0527 6.76185 39.0527 6.68063 39.0527 6.59941V6.15268C39.0391 5.85486 39.0322 5.57058 39.0322 5.29983C39.0322 5.02909 39.0254 4.77188 39.0118 4.52821C38.9982 4.41991 38.9914 4.31161 38.9914 4.20331C38.9914 4.09502 38.9846 3.99349 38.971 3.89873C38.971 3.79043 38.9642 3.69567 38.9506 3.61444C38.9506 3.53322 38.9506 3.45877 38.9506 3.39108C38.9506 3.32339 38.9438 3.26248 38.9302 3.20833C38.9302 3.15418 38.9302 3.1068 38.9302 3.06619V2.96466C38.9166 2.96466 38.9098 2.97143 38.9098 2.98496V3.06619C38.9098 3.1068 38.903 3.15418 38.8893 3.20833C38.8893 3.26248 38.8893 3.32339 38.8893 3.39108C38.8893 3.45877 38.8825 3.53322 38.8689 3.61444C38.8689 3.69567 38.8689 3.79043 38.8689 3.89873C38.8553 3.99349 38.8485 4.09502 38.8485 4.20331C38.8485 4.31161 38.8417 4.41991 38.8281 4.52821C38.8145 4.77188 38.8077 5.02909 38.8077 5.29983C38.8077 5.57058 38.8009 5.85486 38.7873 6.15268V6.59941C38.7873 6.68063 38.7805 6.76185 38.7669 6.84308C38.7669 6.9243 38.7669 6.99876 38.7669 7.06644V8.95489C38.7669 9.06318 38.7737 9.14441 38.7873 9.19856V9.86865C38.7873 10.0176 38.7873 10.1665 38.7873 10.3154C38.8009 10.4508 38.8077 10.5861 38.8077 10.7215C38.8077 10.8704 38.8077 11.0058 38.8077 11.1276C38.8213 11.2494 38.8281 11.3713 38.8281 11.4931C38.8417 11.615 38.8485 11.73 38.8485 11.8383C38.8485 11.9331 38.8553 12.0346 38.8689 12.1429C38.8689 12.2377 38.8689 12.3257 38.8689 12.4069C38.8825 12.4881 38.8893 12.5626 38.8893 12.6302C38.8893 12.6979 38.8893 12.7656 38.8893 12.8333C38.903 12.8875 38.9098 12.9281 38.9098 12.9551V13.0567C38.9098 13.0702 38.9166 13.077 38.9302 13.077V12.9551C38.9302 12.9281 38.9302 12.8875 38.9302 12.8333C38.9438 12.7656 38.9506 12.6979 38.9506 12.6302C38.9506 12.5626 38.9506 12.4881 38.9506 12.4069C38.9642 12.3257 38.971 12.2377 38.971 12.1429C38.9846 12.0346 38.9914 11.9331 38.9914 11.8383C38.9914 11.73 38.9982 11.615 39.0118 11.4931C39.0118 11.3713 39.0118 11.2494 39.0118 11.1276C39.0254 11.0058 39.0322 10.8704 39.0322 10.7215C39.0322 10.5861 39.0322 10.4508 39.0322 10.3154C39.0459 10.1665 39.0527 10.0176 39.0527 9.86865V9.42192C39.0527 9.31362 39.0595 9.23917 39.0731 9.19856V7.06644ZM43.2784 11.7774C43.2648 11.8045 43.2579 11.8383 43.2579 11.8789V12.346C43.2443 12.4001 43.2375 12.4543 43.2375 12.5084C43.2375 12.549 43.2375 12.5896 43.2375 12.6302C43.2375 12.6573 43.2307 12.6776 43.2171 12.6912C43.2171 12.7047 43.2171 12.725 43.2171 12.7521V12.8739C43.2035 12.901 43.1967 12.9348 43.1967 12.9754C43.1967 13.0025 43.1899 13.0296 43.1763 13.0567C43.1763 13.0837 43.1695 13.1041 43.1559 13.1176V13.1582L43.1355 13.1988C43.1355 13.1988 43.1491 13.192 43.1763 13.1785V13.1582L43.1967 13.1379C43.2103 13.1244 43.2171 13.1176 43.2171 13.1176C43.2171 13.1041 43.2239 13.0905 43.2375 13.077C43.2511 13.0499 43.2648 13.0228 43.2784 12.9958C43.292 12.9551 43.3056 12.9213 43.3192 12.8942C43.3328 12.8671 43.3396 12.8536 43.3396 12.8536C43.3396 12.8401 43.3464 12.8198 43.36 12.7927C43.3736 12.7656 43.3804 12.7453 43.3804 12.7318C43.3804 12.7182 43.3872 12.6979 43.4008 12.6709C43.4145 12.6438 43.4213 12.6235 43.4213 12.6099C43.4213 12.5829 43.4281 12.5558 43.4417 12.5287C43.4417 12.5016 43.4417 12.4813 43.4417 12.4678C43.4553 12.4407 43.4621 12.4137 43.4621 12.3866C43.4757 12.3324 43.4825 12.2783 43.4825 12.2241C43.4961 12.17 43.5097 12.1158 43.5233 12.0617C43.5369 12.0211 43.5437 11.9602 43.5437 11.8789C43.5437 11.8519 43.5437 11.8248 43.5437 11.7977C43.5574 11.7706 43.5642 11.7436 43.5642 11.7165V11.0058C43.5642 10.9246 43.5574 10.8636 43.5437 10.823V10.7418C43.5437 10.7147 43.5369 10.7012 43.5233 10.7012C43.5233 10.6877 43.5233 10.6741 43.5233 10.6606C43.5233 10.5929 43.5165 10.5387 43.5029 10.4981C43.5029 10.444 43.4961 10.3898 43.4825 10.3357C43.4689 10.3086 43.4621 10.2815 43.4621 10.2545C43.4621 10.2274 43.4553 10.2003 43.4417 10.1732C43.4417 10.1597 43.4349 10.1529 43.4213 10.1529C43.4213 10.1394 43.4213 10.1259 43.4213 10.1123C43.4213 10.0988 43.4145 10.092 43.4008 10.092C43.4008 10.0785 43.4008 10.0649 43.4008 10.0514C43.3872 10.0243 43.3804 10.004 43.3804 9.99049C43.3804 9.97695 43.3736 9.95664 43.36 9.92957C43.3464 9.90249 43.3396 9.88219 43.3396 9.86865C43.3396 9.85511 43.3328 9.83481 43.3192 9.80773C43.3056 9.7942 43.2988 9.78066 43.2988 9.76712C43.2988 9.75358 43.292 9.74005 43.2784 9.72651C43.2511 9.67236 43.2375 9.64529 43.2375 9.64529C43.2239 9.63175 43.2171 9.62498 43.2171 9.62498C43.2171 9.61144 43.2103 9.59791 43.1967 9.58437C43.1831 9.57083 43.1763 9.55729 43.1763 9.54376L43.1355 9.50315C43.1355 9.50315 43.1423 9.51668 43.1559 9.54376V9.58437C43.1695 9.59791 43.1763 9.62498 43.1763 9.66559C43.1763 9.67913 43.1763 9.69267 43.1763 9.7062C43.1899 9.7062 43.1967 9.71974 43.1967 9.74682C43.1967 9.78743 43.2035 9.82127 43.2171 9.84834V9.94987C43.2171 9.97695 43.2171 9.99725 43.2171 10.0108C43.2307 10.0243 43.2375 10.0446 43.2375 10.0717C43.2375 10.1935 43.2443 10.2883 43.2579 10.356V10.6809C43.2716 10.7486 43.2784 10.8569 43.2784 11.0058V11.7774ZM42.4414 10.7215C42.4414 10.5455 42.4346 10.3289 42.421 10.0717C42.4074 9.8145 42.3597 9.57083 42.2781 9.3407C42.1964 9.11057 42.0671 8.91428 41.8902 8.75183C41.7269 8.57584 41.4819 8.48785 41.1553 8.48785H40.4204C40.2707 8.50139 40.1414 8.56231 40.0325 8.6706C39.9237 8.7789 39.8692 8.90751 39.8692 9.05642V13.6252C39.8692 13.7741 39.9237 13.9027 40.0325 14.011C40.1414 14.1193 40.2707 14.1735 40.4204 14.1735H41.1553C41.4819 14.1735 41.7269 14.0923 41.8902 13.9298C42.0671 13.7674 42.1964 13.5711 42.2781 13.341C42.3597 13.0973 42.4074 12.8536 42.421 12.6099C42.4346 12.3527 42.4414 12.1361 42.4414 11.9602V10.7215ZM42.4414 4.08148C42.4414 3.9055 42.4346 3.6889 42.421 3.43169C42.4074 3.17448 42.3597 2.93081 42.2781 2.70068C42.1964 2.47055 42.0671 2.27426 41.8902 2.11181C41.7269 1.93583 41.4819 1.84783 41.1553 1.84783H40.4204C40.2707 1.86137 40.1414 1.92229 40.0325 2.03059C39.9237 2.13889 39.8692 2.26749 39.8692 2.4164V6.98522C39.8692 7.13413 39.9237 7.26273 40.0325 7.37103C40.1414 7.47933 40.2707 7.53348 40.4204 7.53348H41.1553C41.4819 7.53348 41.7269 7.45225 41.8902 7.28981C42.0671 7.12736 42.1964 6.93107 42.2781 6.70094C42.3597 6.45727 42.4074 6.21359 42.421 5.96992C42.4346 5.71272 42.4414 5.49612 42.4414 5.32014V4.08148ZM43.3192 6.09176C43.3328 6.06469 43.3396 6.05115 43.3396 6.05115C43.3396 6.03761 43.3464 6.01731 43.36 5.99023C43.3736 5.96316 43.3804 5.94285 43.3804 5.92931C43.3804 5.90224 43.3872 5.87516 43.4008 5.84809C43.4145 5.82101 43.4213 5.80071 43.4213 5.78717C43.4213 5.77363 43.4281 5.75333 43.4417 5.72625C43.4417 5.69918 43.4417 5.67887 43.4417 5.66534C43.4553 5.63826 43.4621 5.61119 43.4621 5.58411C43.4757 5.52996 43.4825 5.47582 43.4825 5.42167C43.4961 5.36752 43.5097 5.31337 43.5233 5.25922C43.5369 5.21861 43.5437 5.15769 43.5437 5.07647C43.5437 5.04939 43.5437 5.02232 43.5437 4.99524C43.5574 4.96817 43.5642 4.94109 43.5642 4.91402V4.20331C43.5642 4.12209 43.5574 4.06117 43.5437 4.02056V3.93934C43.5437 3.91226 43.5369 3.89873 43.5233 3.89873C43.5233 3.88519 43.5233 3.86488 43.5233 3.83781C43.5233 3.77012 43.5097 3.66859 43.4825 3.53322C43.4689 3.50615 43.4621 3.47907 43.4621 3.452C43.4621 3.42492 43.4553 3.39785 43.4417 3.37077C43.4417 3.35724 43.4349 3.35047 43.4213 3.35047C43.4213 3.33693 43.4213 3.32339 43.4213 3.30986C43.4213 3.29632 43.4145 3.28955 43.4008 3.28955C43.4008 3.27601 43.4008 3.26248 43.4008 3.24894C43.3872 3.22186 43.3804 3.20156 43.3804 3.18802C43.3804 3.17448 43.3736 3.15418 43.36 3.1271C43.3464 3.10003 43.3396 3.07972 43.3396 3.06619C43.3396 3.05265 43.3328 3.03234 43.3192 3.00527C43.3056 2.99173 43.2988 2.97819 43.2988 2.96466C43.2988 2.95112 43.292 2.93758 43.2784 2.92405C43.2511 2.8699 43.2375 2.84282 43.2375 2.84282C43.2239 2.82928 43.2171 2.82252 43.2171 2.82252C43.2171 2.80898 43.2103 2.79544 43.1967 2.7819C43.1831 2.76837 43.1763 2.75483 43.1763 2.74129C43.1627 2.72775 43.1559 2.71422 43.1559 2.70068H43.1355C43.1355 2.70068 43.1423 2.71422 43.1559 2.74129V2.7819C43.1695 2.79544 43.1763 2.82252 43.1763 2.86313C43.1763 2.87666 43.1763 2.8902 43.1763 2.90374C43.1899 2.90374 43.1967 2.91728 43.1967 2.94435C43.1967 2.98496 43.2035 3.01881 43.2171 3.04588V3.14741C43.2171 3.17448 43.2171 3.19479 43.2171 3.20833C43.2307 3.22186 43.2375 3.24217 43.2375 3.26924C43.2375 3.39108 43.2443 3.48584 43.2579 3.55353V3.87842C43.2716 3.94611 43.2784 4.0544 43.2784 4.20331V4.97494C43.2648 5.00201 43.2579 5.03586 43.2579 5.07647V5.5435C43.2443 5.59765 43.2375 5.6518 43.2375 5.70595C43.2375 5.74656 43.2375 5.78717 43.2375 5.82778C43.2375 5.85486 43.2307 5.87516 43.2171 5.8887C43.2171 5.90224 43.2171 5.92254 43.2171 5.94962V6.07145C43.2035 6.09853 43.1967 6.13237 43.1967 6.17298C43.1967 6.20006 43.1899 6.22713 43.1763 6.25421C43.1763 6.28128 43.1695 6.30159 43.1559 6.31512V6.35574L43.1355 6.39635C43.1355 6.39635 43.1491 6.38958 43.1763 6.37604V6.35574L43.1967 6.33543C43.2103 6.32189 43.2171 6.31512 43.2171 6.31512C43.2171 6.30159 43.2239 6.28805 43.2375 6.27451C43.2511 6.24744 43.2648 6.22036 43.2784 6.19329C43.292 6.15268 43.3056 6.11883 43.3192 6.09176Z" fill="#FF9000"/>
<path d="M51.2979 13.8892C51.2979 14.1329 51.3183 14.3156 51.3591 14.4375C51.4136 14.5458 51.468 14.6338 51.5224 14.7014C51.5769 14.7556 51.6245 14.8097 51.6653 14.8639C51.7198 14.918 51.747 15.006 51.747 15.1279H46.1944C46.1127 15.1279 46.0379 15.094 45.9698 15.0263C45.9018 14.9587 45.8678 14.8842 45.8678 14.803C45.8678 14.8842 45.8337 14.9587 45.7657 15.0263C45.7112 15.094 45.6364 15.1279 45.5411 15.1279H44.4796C44.4796 15.006 44.5 14.918 44.5408 14.8639C44.5953 14.8097 44.6497 14.7556 44.7042 14.7014C44.7586 14.6338 44.8062 14.5458 44.8471 14.4375C44.9015 14.3292 44.9287 14.16 44.9287 13.9298V8.97519C44.8879 8.55554 44.6973 8.25095 44.3571 8.06143C44.5068 7.96667 44.6973 7.91929 44.9287 7.91929V2.11181C44.9287 1.88168 44.9015 1.71246 44.8471 1.60416C44.8062 1.49587 44.7586 1.41464 44.7042 1.36049C44.6497 1.29281 44.5953 1.23189 44.5408 1.17774C44.5 1.12359 44.4796 1.0356 44.4796 0.913764H45.5615C45.6432 0.913764 45.718 0.947607 45.7861 1.01529C45.8541 1.06944 45.8882 1.1439 45.8882 1.23866C45.8882 1.02206 45.997 0.913764 46.2148 0.913764H51.747C51.747 1.0356 51.7198 1.12359 51.6653 1.17774C51.6245 1.23189 51.5769 1.29281 51.5224 1.36049C51.468 1.41464 51.4136 1.50263 51.3591 1.62447C51.3183 1.73277 51.2979 1.90875 51.2979 2.15242V4.8531C50.8216 4.8531 50.4541 4.76511 50.1955 4.58913C49.9506 4.3996 49.7668 4.18978 49.6443 3.95964C49.4946 3.70244 49.413 3.39785 49.3994 3.04588V2.4164C49.3994 2.26749 49.3449 2.13889 49.2361 2.03059C49.1272 1.92229 48.9979 1.86137 48.8482 1.84783H47.3784C47.2287 1.86137 47.0994 1.92229 46.9905 2.03059C46.8816 2.13889 46.8272 2.26749 46.8272 2.4164V6.98522C46.8272 7.13413 46.8816 7.26273 46.9905 7.37103C47.0994 7.47933 47.2287 7.53348 47.3784 7.53348H47.5213C47.671 7.53348 47.7935 7.47933 47.8887 7.37103C47.9976 7.26273 48.0521 7.13413 48.0521 6.98522V6.96491C48.0657 6.76185 48.1201 6.58587 48.2154 6.43696C48.297 6.30159 48.4195 6.17975 48.5828 6.07145C48.7461 5.96316 48.9843 5.90901 49.2973 5.90901V10.1123C48.9843 10.1123 48.7461 10.0582 48.5828 9.94987C48.4195 9.84158 48.297 9.71974 48.2154 9.58437C48.1201 9.43546 48.0657 9.25947 48.0521 9.05642C48.0521 8.90751 47.9976 8.7789 47.8887 8.6706C47.7935 8.56231 47.671 8.50139 47.5213 8.48785H47.3784C47.2287 8.50139 47.0994 8.56231 46.9905 8.6706C46.8816 8.7789 46.8272 8.90751 46.8272 9.05642V13.6252C46.8272 13.7741 46.8816 13.9027 46.9905 14.011C47.0994 14.1193 47.2287 14.1735 47.3784 14.1735H48.8482C48.9979 14.1735 49.1272 14.1193 49.2361 14.011C49.3449 13.9027 49.3994 13.7741 49.3994 13.6252V12.9754C49.413 12.637 49.4946 12.3392 49.6443 12.082C49.7668 11.8519 49.9506 11.642 50.1955 11.4525C50.4541 11.263 50.8216 11.1682 51.2979 11.1682V13.8892ZM46.0311 7.06644C46.0311 6.99876 46.0243 6.9243 46.0107 6.84308C46.0107 6.76185 46.0107 6.68063 46.0107 6.59941V6.15268C45.997 5.85486 45.9902 5.57058 45.9902 5.29983C45.9902 5.02909 45.9834 4.77188 45.9698 4.52821C45.9562 4.41991 45.9494 4.31161 45.9494 4.20331C45.9494 4.09502 45.9426 3.99349 45.929 3.89873C45.929 3.79043 45.9222 3.69567 45.9086 3.61444C45.9086 3.53322 45.9086 3.45877 45.9086 3.39108C45.9086 3.32339 45.9018 3.26248 45.8882 3.20833C45.8882 3.15418 45.8882 3.1068 45.8882 3.06619V2.96466C45.8746 2.96466 45.8678 2.97143 45.8678 2.98496V3.06619C45.8678 3.1068 45.8609 3.15418 45.8473 3.20833C45.8473 3.26248 45.8473 3.32339 45.8473 3.39108C45.8473 3.45877 45.8405 3.53322 45.8269 3.61444C45.8269 3.69567 45.8269 3.79043 45.8269 3.89873C45.8133 3.99349 45.8065 4.09502 45.8065 4.20331C45.8065 4.31161 45.7997 4.41991 45.7861 4.52821C45.7725 4.77188 45.7657 5.02909 45.7657 5.29983C45.7657 5.57058 45.7589 5.85486 45.7453 6.15268V6.59941C45.7453 6.68063 45.7385 6.76185 45.7249 6.84308C45.7249 6.9243 45.7249 6.99876 45.7249 7.06644V8.95489C45.7249 9.06318 45.7317 9.14441 45.7453 9.19856V9.86865C45.7453 10.0176 45.7453 10.1665 45.7453 10.3154C45.7589 10.4508 45.7657 10.5861 45.7657 10.7215C45.7657 10.8704 45.7657 11.0058 45.7657 11.1276C45.7793 11.2494 45.7861 11.3713 45.7861 11.4931C45.7997 11.615 45.8065 11.73 45.8065 11.8383C45.8065 11.9331 45.8133 12.0346 45.8269 12.1429C45.8269 12.2377 45.8269 12.3257 45.8269 12.4069C45.8405 12.4881 45.8473 12.5626 45.8473 12.6302C45.8473 12.6979 45.8473 12.7656 45.8473 12.8333C45.8609 12.8875 45.8678 12.9281 45.8678 12.9551V13.0567C45.8678 13.0702 45.8746 13.077 45.8882 13.077V12.9551C45.8882 12.9281 45.8882 12.8875 45.8882 12.8333C45.9018 12.7656 45.9086 12.6979 45.9086 12.6302C45.9086 12.5626 45.9086 12.4881 45.9086 12.4069C45.9222 12.3257 45.929 12.2377 45.929 12.1429C45.9426 12.0346 45.9494 11.9331 45.9494 11.8383C45.9494 11.73 45.9562 11.615 45.9698 11.4931C45.9698 11.3713 45.9698 11.2494 45.9698 11.1276C45.9834 11.0058 45.9902 10.8704 45.9902 10.7215C45.9902 10.5861 45.9902 10.4508 45.9902 10.3154C46.0038 10.1665 46.0107 10.0176 46.0107 9.86865V9.42192C46.0107 9.31362 46.0175 9.23917 46.0311 9.19856V7.06644Z" fill="#FF9000"/>
<path d="M59.5101 15.9807C59.6598 16.0078 59.7618 16.0552 59.8163 16.1229C59.8843 16.1905 59.9319 16.2582 59.9592 16.3259C59.9864 16.4071 60 16.4951 60 16.5899C59.5645 16.5899 59.1562 16.5357 58.7752 16.4274C58.3941 16.3191 58.0539 16.1432 57.7545 15.8995C57.4687 15.6558 57.2373 15.3377 57.0604 14.9451C56.8971 14.5525 56.8154 14.072 56.8154 13.5034V10.7215C56.8154 10.5455 56.8086 10.3289 56.795 10.0717C56.7814 9.8145 56.7338 9.57083 56.6521 9.3407C56.5704 9.11057 56.4412 8.91428 56.2642 8.75183C56.1009 8.57584 55.8559 8.48785 55.5293 8.48785H54.6923C54.5699 8.51493 54.461 8.58261 54.3657 8.69091C54.2841 8.78567 54.2432 8.90074 54.2432 9.03611V13.8892C54.2432 14.1329 54.2637 14.3156 54.3045 14.4375C54.3589 14.5458 54.4134 14.6338 54.4678 14.7014C54.5222 14.7556 54.5699 14.8097 54.6107 14.8639C54.6651 14.918 54.6923 15.006 54.6923 15.1279H53.6104C53.5287 15.1279 53.4539 15.094 53.3859 15.0263C53.3178 14.9587 53.2838 14.8842 53.2838 14.803C53.2838 14.8842 53.2498 14.9587 53.1817 15.0263C53.1273 15.094 53.0524 15.1279 52.9572 15.1279H51.8956C51.8956 15.006 51.916 14.918 51.9569 14.8639C52.0113 14.8097 52.0657 14.7556 52.1202 14.7014C52.1746 14.6338 52.2223 14.5458 52.2631 14.4375C52.3175 14.3292 52.3447 14.16 52.3447 13.9298V8.97519C52.3039 8.55554 52.1134 8.25095 51.7731 8.06143C51.9228 7.96667 52.1134 7.91929 52.3447 7.91929V2.11181C52.3447 1.88168 52.3175 1.71246 52.2631 1.60416C52.2223 1.49587 52.1746 1.41464 52.1202 1.36049C52.0657 1.29281 52.0113 1.23189 51.9569 1.17774C51.916 1.12359 51.8956 1.0356 51.8956 0.913764H52.9776C53.0592 0.913764 53.1341 0.947607 53.2021 1.01529C53.2702 1.06944 53.3042 1.1439 53.3042 1.23866C53.3042 1.02206 53.4131 0.913764 53.6308 0.913764H55.5497C55.9852 0.913764 56.3935 0.994988 56.7746 1.15744C57.1556 1.31988 57.4891 1.54325 57.7749 1.82753C58.0607 2.09827 58.2852 2.42317 58.4485 2.80221C58.6118 3.18125 58.7003 3.5806 58.7139 4.00026V5.32014C58.7139 5.8887 58.5778 6.40989 58.3056 6.88369C58.0334 7.35749 57.666 7.73654 57.2033 8.02082C57.666 8.29156 58.0334 8.6706 58.3056 9.15795C58.5778 9.63175 58.7139 10.1529 58.7139 10.7215V13.4222C58.7139 13.7065 58.7139 13.9975 58.7139 14.2953C58.7275 14.5796 58.7615 14.8436 58.816 15.0873C58.8704 15.3174 58.9521 15.5137 59.061 15.6761C59.1698 15.8386 59.3195 15.9401 59.5101 15.9807ZM57.6524 4.97494C57.6388 5.00201 57.632 5.03586 57.632 5.07647V5.5435C57.6184 5.59765 57.6116 5.6518 57.6116 5.70595C57.6116 5.74656 57.6116 5.78717 57.6116 5.82778C57.6116 5.85486 57.6048 5.87516 57.5911 5.8887C57.5911 5.90224 57.5911 5.92254 57.5911 5.94962V6.07145C57.5775 6.09853 57.5707 6.13237 57.5707 6.17298C57.5707 6.20006 57.5639 6.22713 57.5503 6.25421C57.5503 6.28128 57.5435 6.30159 57.5299 6.31512V6.35574L57.5095 6.39635C57.5095 6.39635 57.5231 6.38958 57.5503 6.37604V6.35574L57.5707 6.33543C57.5843 6.32189 57.5911 6.31512 57.5911 6.31512C57.5911 6.30159 57.5979 6.28805 57.6116 6.27451C57.6252 6.24744 57.6388 6.22036 57.6524 6.19329C57.666 6.15268 57.6796 6.11883 57.6932 6.09176C57.7068 6.06469 57.7136 6.05115 57.7136 6.05115C57.7136 6.03761 57.7204 6.01731 57.734 5.99023C57.7477 5.96316 57.7545 5.94285 57.7545 5.92931C57.7545 5.90224 57.7613 5.87516 57.7749 5.84809C57.7885 5.82101 57.7953 5.80071 57.7953 5.78717C57.7953 5.77363 57.8021 5.75333 57.8157 5.72625C57.8157 5.69918 57.8157 5.67887 57.8157 5.66534C57.8293 5.63826 57.8361 5.61119 57.8361 5.58411C57.8497 5.52996 57.8565 5.47582 57.8565 5.42167C57.8701 5.36752 57.8837 5.31337 57.8974 5.25922C57.911 5.21861 57.9178 5.15769 57.9178 5.07647C57.9178 5.04939 57.9178 5.02232 57.9178 4.99524C57.9314 4.96817 57.9382 4.94109 57.9382 4.91402V4.20331C57.9382 4.12209 57.9314 4.06117 57.9178 4.02056V3.93934C57.9178 3.91226 57.911 3.89873 57.8974 3.89873C57.8974 3.88519 57.8974 3.86488 57.8974 3.83781C57.8974 3.77012 57.8837 3.66859 57.8565 3.53322C57.8429 3.50615 57.8361 3.47907 57.8361 3.452C57.8361 3.42492 57.8293 3.39785 57.8157 3.37077C57.8157 3.35724 57.8089 3.35047 57.7953 3.35047C57.7953 3.33693 57.7953 3.32339 57.7953 3.30986C57.7953 3.29632 57.7885 3.28955 57.7749 3.28955C57.7749 3.27601 57.7749 3.26248 57.7749 3.24894C57.7613 3.22186 57.7545 3.20156 57.7545 3.18802C57.7545 3.17448 57.7477 3.15418 57.734 3.1271C57.7204 3.10003 57.7136 3.07972 57.7136 3.06619C57.7136 3.05265 57.7068 3.03234 57.6932 3.00527C57.6796 2.99173 57.6728 2.97819 57.6728 2.96466C57.6728 2.95112 57.666 2.93758 57.6524 2.92405C57.6252 2.8699 57.6116 2.84282 57.6116 2.84282C57.5979 2.82928 57.5911 2.82252 57.5911 2.82252C57.5911 2.80898 57.5843 2.79544 57.5707 2.7819C57.5571 2.76837 57.5503 2.75483 57.5503 2.74129C57.5367 2.72775 57.5299 2.71422 57.5299 2.70068H57.5095C57.5095 2.70068 57.5163 2.71422 57.5299 2.74129V2.7819C57.5435 2.79544 57.5503 2.82252 57.5503 2.86313C57.5503 2.87666 57.5503 2.8902 57.5503 2.90374C57.5639 2.90374 57.5707 2.91728 57.5707 2.94435C57.5707 2.98496 57.5775 3.01881 57.5911 3.04588V3.14741C57.5911 3.17448 57.5911 3.19479 57.5911 3.20833C57.6048 3.22186 57.6116 3.24217 57.6116 3.26924C57.6116 3.39108 57.6184 3.48584 57.632 3.55353V3.87842C57.6456 3.94611 57.6524 4.0544 57.6524 4.20331V4.97494ZM53.4471 7.06644C53.4471 6.99876 53.4403 6.9243 53.4267 6.84308C53.4267 6.76185 53.4267 6.68063 53.4267 6.59941V6.15268C53.4131 5.85486 53.4063 5.57058 53.4063 5.29983C53.4063 5.02909 53.3995 4.77188 53.3859 4.52821C53.3722 4.41991 53.3654 4.31161 53.3654 4.20331C53.3654 4.09502 53.3586 3.99349 53.345 3.89873C53.345 3.79043 53.3382 3.69567 53.3246 3.61444C53.3246 3.53322 53.3246 3.45877 53.3246 3.39108C53.3246 3.32339 53.3178 3.26248 53.3042 3.20833C53.3042 3.15418 53.3042 3.1068 53.3042 3.06619V2.96466C53.2906 2.96466 53.2838 2.97143 53.2838 2.98496V3.06619C53.2838 3.1068 53.277 3.15418 53.2634 3.20833C53.2634 3.26248 53.2634 3.32339 53.2634 3.39108C53.2634 3.45877 53.2566 3.53322 53.243 3.61444C53.243 3.69567 53.243 3.79043 53.243 3.89873C53.2293 3.99349 53.2225 4.09502 53.2225 4.20331C53.2225 4.31161 53.2157 4.41991 53.2021 4.52821C53.1885 4.77188 53.1817 5.02909 53.1817 5.29983C53.1817 5.57058 53.1749 5.85486 53.1613 6.15268V6.59941C53.1613 6.68063 53.1545 6.76185 53.1409 6.84308C53.1409 6.9243 53.1409 6.99876 53.1409 7.06644V8.95489C53.1409 9.06318 53.1477 9.14441 53.1613 9.19856V9.86865C53.1613 10.0176 53.1613 10.1665 53.1613 10.3154C53.1749 10.4508 53.1817 10.5861 53.1817 10.7215C53.1817 10.8704 53.1817 11.0058 53.1817 11.1276C53.1953 11.2494 53.2021 11.3713 53.2021 11.4931C53.2157 11.615 53.2225 11.73 53.2225 11.8383C53.2225 11.9331 53.2293 12.0346 53.243 12.1429C53.243 12.2377 53.243 12.3257 53.243 12.4069C53.2566 12.4881 53.2634 12.5626 53.2634 12.6302C53.2634 12.6979 53.2634 12.7656 53.2634 12.8333C53.277 12.8875 53.2838 12.9281 53.2838 12.9551V13.0567C53.2838 13.0702 53.2906 13.077 53.3042 13.077V12.9551C53.3042 12.9281 53.3042 12.8875 53.3042 12.8333C53.3178 12.7656 53.3246 12.6979 53.3246 12.6302C53.3246 12.5626 53.3246 12.4881 53.3246 12.4069C53.3382 12.3257 53.345 12.2377 53.345 12.1429C53.3586 12.0346 53.3654 11.9331 53.3654 11.8383C53.3654 11.73 53.3722 11.615 53.3859 11.4931C53.3859 11.3713 53.3859 11.2494 53.3859 11.1276C53.3995 11.0058 53.4063 10.8704 53.4063 10.7215C53.4063 10.5861 53.4063 10.4508 53.4063 10.3154C53.4199 10.1665 53.4267 10.0176 53.4267 9.86865V9.42192C53.4267 9.31362 53.4335 9.23917 53.4471 9.19856V7.06644ZM56.8154 4.08148C56.8154 3.9055 56.8086 3.6889 56.795 3.43169C56.7814 3.17448 56.7338 2.93081 56.6521 2.70068C56.5704 2.47055 56.4412 2.27426 56.2642 2.11181C56.1009 1.93583 55.8559 1.84783 55.5293 1.84783H54.7944C54.6447 1.86137 54.5154 1.92229 54.4066 2.03059C54.2977 2.13889 54.2432 2.26749 54.2432 2.4164V6.98522C54.2432 7.13413 54.2977 7.26273 54.4066 7.37103C54.5154 7.47933 54.6447 7.53348 54.7944 7.53348H55.5293C55.8559 7.53348 56.1009 7.45225 56.2642 7.28981C56.4412 7.12736 56.5704 6.93107 56.6521 6.70094C56.7338 6.45727 56.7814 6.21359 56.795 5.96992C56.8086 5.71272 56.8154 5.49612 56.8154 5.32014V4.08148ZM58.1831 15.2091C58.1831 15.2091 58.1763 15.2023 58.1627 15.1888L58.1423 15.1685C58.1287 15.1414 58.1151 15.1143 58.1015 15.0873C58.1015 15.0602 58.0879 15.0331 58.0607 15.006C58.0471 14.9654 58.0334 14.9248 58.0198 14.8842C58.0062 14.8301 57.9926 14.7691 57.979 14.7014C57.9518 14.5661 57.9382 14.4375 57.9382 14.3156C57.9246 14.2479 57.9178 14.1803 57.9178 14.1126C57.9178 14.0314 57.9178 13.9434 57.9178 13.8486V12.7724C57.9178 12.6776 57.9178 12.5829 57.9178 12.4881C57.9178 12.3933 57.9246 12.2918 57.9382 12.1835C57.9382 12.0888 57.9382 11.994 57.9382 11.8992C57.9382 11.8045 57.9314 11.7097 57.9178 11.615V11.3307C57.9178 11.1953 57.911 11.1005 57.8974 11.0464C57.8974 10.9516 57.8905 10.8636 57.8769 10.7824C57.8769 10.6877 57.8701 10.5997 57.8565 10.5184C57.8293 10.3289 57.8021 10.1665 57.7749 10.0311C57.7613 9.96341 57.7477 9.90249 57.734 9.84834C57.7204 9.78066 57.7 9.71297 57.6728 9.64529C57.6456 9.5776 57.6252 9.52345 57.6116 9.48284C57.5979 9.44223 57.5775 9.40162 57.5503 9.361C57.5231 9.32039 57.5027 9.28655 57.4891 9.25947C57.4755 9.2324 57.4619 9.20533 57.4482 9.17825C57.4346 9.17825 57.421 9.17148 57.4074 9.15795C57.3938 9.15795 57.387 9.15118 57.387 9.13764L57.4074 9.15795C57.4074 9.17148 57.4142 9.18502 57.4278 9.19856C57.4278 9.21209 57.4278 9.22563 57.4278 9.23917C57.4414 9.23917 57.4482 9.25271 57.4482 9.27978C57.4619 9.29332 57.4687 9.30685 57.4687 9.32039C57.4687 9.33393 57.4755 9.35424 57.4891 9.38131C57.5027 9.43546 57.5231 9.53022 57.5503 9.66559C57.5639 9.73328 57.5707 9.80096 57.5707 9.86865C57.5843 9.93634 57.5979 10.004 57.6116 10.0717C57.6116 10.1394 57.6116 10.2139 57.6116 10.2951C57.6252 10.3628 57.632 10.444 57.632 10.5387V13.0567C57.632 13.1108 57.632 13.1582 57.632 13.1988C57.6456 13.2394 57.6524 13.2868 57.6524 13.341C57.6524 13.4357 57.6524 13.5305 57.6524 13.6252C57.666 13.7065 57.6796 13.7877 57.6932 13.8689C57.7068 13.9501 57.7136 14.0314 57.7136 14.1126C57.7272 14.1938 57.7408 14.2683 57.7545 14.3359C57.7817 14.4172 57.8021 14.4916 57.8157 14.5593C57.8293 14.6135 57.8497 14.6744 57.8769 14.7421C57.9042 14.8097 57.9246 14.8639 57.9382 14.9045C57.9518 14.9451 57.9722 14.9857 57.9994 15.0263L58.0402 15.067C58.0539 15.0805 58.0607 15.094 58.0607 15.1076C58.0607 15.1076 58.0675 15.1143 58.0811 15.1279L58.1627 15.2091H58.1831Z" fill="#FF9000"/>
</svg>
